<svg width="315" height="220" viewBox="0 0 315 220" fill="none" xmlns="http://www.w3.org/2000/svg">
<g clip-path="url(#clip0_207_2562)">
<path d="M251.483 45V51.3438C252.759 51.4163 253.837 51.4761 255.069 51.5455V104.653C259.056 101.738 262.794 98.9962 266.547 96.2734C267.855 95.3248 269.194 93.705 270.524 93.7019C271.851 93.6987 273.199 95.3059 274.504 96.2608C279.153 99.6643 283.763 103.118 288.44 106.481C289.363 107.143 289.656 107.833 289.653 108.936C289.622 131.988 289.637 155.041 289.606 178.093C289.606 179.332 289.899 179.994 291.106 180.58C300.702 185.241 306.989 192.77 309.538 203.116C310.443 206.784 310.421 210.688 310.708 214.492C310.815 215.913 310.648 217.281 312.769 217.023C313.036 216.988 313.459 217.518 313.676 217.867C314.209 218.731 314.659 219.642 315.145 220.537V221.167C314.672 221.167 314.199 221.17 313.727 221.17C209.153 221.17 104.577 221.17 0.00390625 221.167C0.00390625 219.906 0.00390625 218.646 0.00390625 217.385C0.464012 217.325 0.924117 217.269 1.48192 217.196C2.24456 210.682 3.60281 204.313 3.55869 197.72C3.41373 176.924 3.42634 156.125 3.5713 135.326C3.59651 131.875 4.53248 128.418 5.15016 124.983C6.21848 119.03 7.39711 113.099 8.44653 107.143C8.5978 106.276 8.29526 105.331 8.20387 104.432H9.65982C8.52531 107.105 9.83 109.626 10.2586 112.179C11.4624 119.376 12.849 126.546 14.1474 133.731C14.2294 134.191 14.1821 134.673 14.1821 135.146C14.1821 157.521 14.1222 179.893 14.2451 202.268C14.264 205.788 15.1212 209.305 15.5939 212.825C15.6633 213.342 15.7609 213.856 15.8807 214.596C17.2862 213.717 18.5752 212.778 19.9775 212.056C23.7781 210.099 26.3812 207.115 28.4769 203.406C31.2501 198.489 34.4583 193.822 37.4111 189.004C37.8429 188.298 38.0981 187.362 38.1013 186.53C38.1517 178.179 37.95 169.821 38.2147 161.479C38.3471 157.338 39.2515 153.216 39.8976 149.1C40.2631 146.787 40.8462 144.512 41.2653 142.208C41.3914 141.515 41.2842 140.778 41.2842 140.05H41.8515C42.2044 142.155 42.4534 144.285 42.9324 146.359C44.7697 154.307 45.5575 162.333 45.2329 170.492C45.069 174.624 45.2046 178.768 45.2046 183.174C48.3182 182.03 51.1828 180.971 54.0474 179.924C60.3124 177.633 66.5743 175.333 72.855 173.086C73.7185 172.777 74.0589 172.405 74.1061 171.441C74.2101 169.355 74.5158 167.278 74.7396 165.185C75.3478 164.946 75.915 164.725 76.6367 164.442C77.0275 165.21 77.393 165.929 77.9855 167.101C78.1053 165.321 78.2502 163.975 78.2439 162.629C78.2439 162.377 77.6483 162.132 77.3332 161.876C75.4864 160.386 75.622 157.994 77.8437 156.554C77.1094 158.032 76.58 159.506 78.1683 160.367C78.8395 160.729 80.1285 160.666 80.7588 160.241C82.0603 159.361 81.7105 158 80.8312 156.617C82.9584 157.921 83.3051 160.326 81.5214 161.59C80.2514 162.491 80.3049 163.446 80.5035 164.653C80.6201 165.374 80.6737 166.109 80.7808 167.089C81.0392 166.493 81.1432 166.042 81.4016 165.715C81.7325 165.296 82.2683 164.621 82.5771 164.687C83.3114 164.851 84.1906 165.037 84.178 166.247C84.1654 167.918 84.2883 169.607 84.5499 171.258C84.6507 171.888 85.1739 172.764 85.7159 172.969C94.6029 176.291 103.521 179.521 112.437 182.77C112.717 182.874 113.017 182.931 113.461 183.054V178.872C113.461 174.513 113.641 170.146 113.417 165.797C113.099 159.598 114.416 153.632 115.516 147.626C115.862 145.732 116.332 143.86 116.656 141.966C116.764 141.335 116.597 140.661 116.559 140.046H117.198C117.57 142.199 117.898 144.307 118.305 146.4C119.682 153.484 121.018 160.543 120.712 167.848C120.444 174.192 120.64 180.555 120.687 186.908C120.693 187.639 120.927 188.462 121.314 189.086C125.197 195.357 129.133 201.6 133.06 207.843C133.305 208.234 133.554 208.69 133.923 208.93C136.81 210.818 139.728 212.661 142.807 214.625C143.229 211.836 143.784 209.22 143.985 206.579C144.313 202.306 144.565 198.013 144.578 193.728C144.638 174.138 144.512 154.546 144.682 134.957C144.713 131.194 145.728 127.428 146.387 123.681C147.335 118.289 148.404 112.916 149.352 107.524C149.526 106.55 149.378 105.516 149.378 104.448H150.553C149.485 107.398 150.944 110.231 151.394 113.124C152.438 119.821 153.799 126.464 155.009 133.132C155.1 133.643 155.056 134.179 155.056 134.705C155.056 155.712 155.06 176.723 155.063 197.73C155.063 198.348 155.063 198.965 155.063 199.665H171.091V81.6162H210.789V51.5203H214.3V45H251.486H251.483ZM221.542 55.7684V169.714C222.739 169.459 223.795 169.099 224.866 169.036C226.414 168.945 226.631 168.179 226.628 166.796C226.587 130.346 226.59 93.8973 226.59 57.4481C226.59 56.8966 226.59 56.3419 226.59 55.7747H230.381V167.829C232.587 167.775 233.847 168.39 234.16 169.676C221.926 175.062 211.347 182.427 204.036 194.389C205.51 193.245 206.673 192.344 208.063 191.266C206.96 195.559 205.952 199.476 204.943 203.393C205.384 203.412 205.463 203.343 205.501 203.257C211.687 189.662 221.74 179.65 234.425 172.099C235.279 171.589 235.483 171.031 235.483 170.101C235.458 132.496 235.461 94.8931 235.465 57.2873C235.465 56.7863 235.509 56.282 235.531 55.7904H239.177V195.12C239.845 195.546 240.466 195.716 240.636 196.091C241.285 197.503 241.953 198.943 242.309 200.443C242.836 202.674 243.085 204.969 243.497 207.228C243.57 207.628 243.872 207.988 244.068 208.369C244.222 208.303 244.377 208.237 244.528 208.17C244.626 195.681 244.547 183.202 242.688 170.612C243.362 170.905 243.8 171.094 244.484 171.39V55.7747H248.013C248.045 56.2631 248.095 56.6697 248.095 57.0793C248.095 93.0558 248.086 129.032 248.083 165.009C248.083 165.693 248.032 166.386 248.146 167.051C248.196 167.36 248.543 167.779 248.827 167.851C249.573 168.04 250.361 168.062 251.285 168.17V52.056H214.687V81.4366H217.785V55.7684H221.538H221.542ZM217.968 170.606V82.2717H179.704V186.709C181.213 185.461 182.584 184.327 184.062 183.107C183.353 183.035 182.845 182.984 182.366 182.937C181.932 180.252 181.954 180.041 184.446 180.296C188.594 180.722 192.155 179.25 195.908 177.343C191.947 177.343 188.222 177.343 184.497 177.343C181.95 177.343 181.824 177.183 182.448 174.523C182.978 174.523 183.545 174.523 184.109 174.523C188.94 174.523 193.778 174.384 198.599 174.567C202.586 174.718 206.39 174.183 210.105 172.777C211.271 172.336 212.491 172.043 213.685 171.683C213.66 171.579 213.638 171.475 213.613 171.371H182.366C182.102 169.621 182.772 168.746 184.377 168.746C193.986 168.746 203.594 168.746 213.206 168.746C213.868 168.746 214.533 168.746 215.289 168.746V171.267C216.25 171.031 217.101 170.823 217.968 170.612V170.606ZM270.294 94.2282C264.275 98.637 258.353 102.954 252.473 107.325C252.11 107.593 251.905 108.296 251.905 108.794C251.877 128.172 251.88 147.55 251.887 166.925C251.887 168.705 251.946 168.658 253.825 168.245C254.638 168.066 255.621 168.135 256.393 168.441C257.03 168.693 257.465 169.455 258.24 170.25C258.391 169.197 258.464 168.696 258.533 168.217H261.18C261.304 169.809 262.042 170.679 263.395 170.826C263.433 169.956 263.471 169.09 263.509 168.217H266.254V171.709C268.384 172.342 270.524 172.979 272.664 173.606C272.834 173.656 273.143 173.707 273.19 173.631C274.038 172.257 275.191 173.158 276.184 173.057C276.524 173.912 275.963 175.26 277.627 175.062C277.652 174.646 277.69 174.287 277.69 173.924C277.693 152.132 277.693 130.337 277.687 108.545C277.687 108.082 277.709 107.546 277.501 107.165C275.138 102.863 272.733 98.5834 270.294 94.225V94.2282ZM289.004 179.404C289.004 178.925 289.004 178.61 289.004 178.298C289.004 155.142 288.994 131.988 289.042 108.832C289.042 107.732 288.506 107.25 287.787 106.723C284.661 104.432 281.541 102.129 278.412 99.844C276.241 98.2556 274.054 96.6894 271.873 95.1105C271.832 95.6494 271.989 96.0087 272.178 96.349C273.978 99.595 275.828 102.819 277.561 106.103C277.999 106.935 278.273 107.962 278.273 108.901C278.311 130.324 278.305 151.748 278.302 173.171C278.302 173.697 278.21 174.242 278.333 174.737C278.428 175.119 278.718 175.623 279.042 175.746C282.301 176.987 285.581 178.163 289.004 179.408V179.404ZM171.831 198.221C172.14 197.62 172.247 197.352 172.399 197.115C174.217 194.32 175.96 191.468 177.91 188.767C178.56 187.869 178.985 187.119 178.985 185.985C178.957 151.915 178.963 117.845 178.963 83.7781C178.963 83.2739 178.963 82.7696 178.963 82.2528H171.828V198.221H171.831ZM138.032 217.228C118.298 201.899 98.8636 186.804 79.3438 171.646C59.8775 186.763 40.4207 201.871 20.6708 217.206H32.7628C32.7628 216.002 32.6714 214.896 32.8006 213.815C32.8699 213.228 33.1725 212.491 33.62 212.157C48.3087 201.187 63.0384 190.274 77.7176 179.288C78.9309 178.38 79.6936 178.364 80.91 179.272C95.1323 189.899 109.38 200.491 123.675 211.023C125.373 212.274 126.517 213.54 126.054 215.775C125.963 216.21 126.092 216.689 126.123 217.231H138.036L138.032 217.228ZM233.416 169.285C233.344 168.374 232.855 168.085 231.951 168.289C231.289 168.438 230.599 168.45 229.934 168.579C216.846 171.097 204.089 174.75 191.767 179.855C179.842 184.796 172.38 193.425 170.379 206.343C169.846 209.784 169.836 213.304 169.584 216.853H181.512C182.058 212.879 182.37 209.009 183.145 205.233C185.048 195.94 189.52 188.383 197.938 183.337C205.195 178.985 212.819 175.544 220.842 172.963C224.996 171.627 229.218 170.505 233.416 169.285ZM310.31 216.881C310.005 212.765 310.074 208.785 309.352 204.953C307.613 195.738 302.7 188.48 294.809 183.318C290.353 180.403 285.364 178.67 280.4 176.886C269.932 173.127 259.245 170.18 248.266 168.346C247.374 168.198 246.595 168.078 246.472 169.326C246.747 169.437 246.98 169.547 247.229 169.622C247.478 169.698 247.736 169.736 247.988 169.799C258.81 172.471 269.308 176.017 279.008 181.617C282.814 183.816 286.621 186.095 289.502 189.511C294.345 195.256 296.514 202.12 297.487 209.428C297.815 211.895 298.004 214.382 298.259 216.881H310.314H310.31ZM244.868 56.1465C244.868 56.8083 244.868 57.3693 244.868 57.9334C244.868 95.3248 244.875 132.716 244.837 170.108C244.837 171.324 245.234 171.961 246.249 172.578C256.399 178.733 264.861 186.643 271.025 196.866C272.361 199.085 273.474 201.436 274.69 203.727C274.794 203.695 274.895 203.664 274.999 203.629C273.965 199.624 272.935 195.618 271.829 191.326C273.092 192.253 274.214 193.078 275.626 194.115C272.096 188.175 267.694 183.473 262.523 179.48C257.332 175.475 251.742 172.134 245.31 169.597C246.075 168.721 246.759 167.936 247.588 166.985V56.1465H244.868ZM165.863 220.429H314.108C313.055 217.565 313.055 217.546 310.216 217.549C288.641 217.549 267.067 217.568 245.492 217.568C220.089 217.568 194.682 217.552 169.279 217.546C166.638 217.546 166.638 217.555 165.859 220.429H165.863ZM0.681459 220.442H158.126V217.937H0.681459V220.442ZM237.163 170.823C236.889 172.982 236.542 175.04 236.378 177.113C236.041 181.346 235.682 185.581 235.556 189.82C235.379 195.644 235.405 201.474 235.376 207.301C235.376 207.628 235.673 207.956 235.83 208.284C236.013 207.975 236.29 207.688 236.36 207.354C236.961 204.446 237.519 201.53 238.099 198.619C238.339 197.408 238.811 196.198 238.811 194.988C238.849 149.305 238.843 103.622 238.843 57.9428V56.1749H236.123V170.905C236.479 170.877 236.763 170.855 237.166 170.823H237.163ZM85.0068 173.426C84.8335 173.543 84.6633 173.659 84.49 173.773C84.9344 174.491 85.2684 175.33 85.8546 175.903C86.7054 176.741 87.7265 177.413 88.7003 178.115C102.403 188.008 116.105 197.897 129.829 207.761C130.705 208.391 131.229 209.009 131.153 210.172C131.121 210.67 131.512 211.353 131.925 211.697C133.614 213.106 135.492 214.3 137.093 215.794C138.641 217.237 140.317 217.584 142.353 217.18C142.485 216.563 142.621 215.92 142.753 215.296C139.92 213.477 137.169 211.76 134.478 209.954C133.724 209.45 133 208.772 132.517 208.013C128.03 200.947 123.618 193.835 119.121 186.776C118.689 186.098 117.908 185.496 117.154 185.2C113.615 183.81 110.032 182.534 106.462 181.229C99.3142 178.623 92.1605 176.023 85.01 173.42L85.0068 173.426ZM73.7752 173.492C73.6019 173.518 73.4412 173.518 73.3025 173.568C62.5751 177.469 51.8446 181.361 41.1329 185.307C40.5594 185.518 40.0016 186.06 39.6644 186.593C35.2177 193.614 30.8373 200.68 26.3623 207.685C25.7415 208.656 24.8181 209.507 23.8632 210.172C21.5879 211.757 19.1834 213.153 16.9049 214.729C16.4637 215.034 16.2494 215.791 16.1297 216.38C16.0761 216.635 16.5267 217.265 16.7347 217.262C18.0457 217.231 19.3788 217.65 20.6015 216.563C22.4388 214.93 24.4336 213.465 26.4253 212.015C27.2541 211.413 27.7331 210.837 27.6764 209.727C27.6481 209.176 28.0577 208.401 28.5178 208.06C32.684 204.984 36.9101 201.991 41.1046 198.956C51.4065 191.506 61.7053 184.046 72.0041 176.587C73.0126 175.856 74.166 175.204 73.7721 173.492H73.7752ZM227.274 168.453C229.024 168.123 229.901 167.097 229.905 165.374C229.912 129.414 229.915 93.4498 229.915 57.489C229.915 57.0415 229.836 56.5909 229.795 56.1497H227.274V168.453ZM235.657 174.261C231.626 176.656 227.766 179.505 224.28 182.849C218.869 188.039 214.539 193.954 212.626 201.326C211.942 203.957 211.69 206.702 211.236 209.437C212.478 209.437 213.263 209.466 214.044 209.431C215.359 209.371 216.033 208.921 216.345 207.376C217.398 202.158 219.342 197.276 222.793 193.104C224.747 190.74 227.104 188.953 230.296 187.633C230.655 194.742 230.999 201.565 231.352 208.501C232.553 208.419 233.621 208.347 234.472 208.29C234.872 196.825 235.263 185.569 235.66 174.264L235.657 174.261ZM268.189 209.497C269.96 198.634 256.497 179.114 244.219 174.397C244.632 185.591 245.051 196.873 245.473 208.322C246.375 208.366 247.437 208.416 248.962 208.492C248.962 204.893 248.867 201.493 248.99 198.099C249.113 194.673 249.457 191.257 249.703 187.838C249.873 187.727 250.043 187.614 250.213 187.504C252.186 189 254.376 190.28 256.084 192.032C260.692 196.753 262.708 202.778 263.96 209.125C264.962 209.255 265.891 209.396 266.824 209.491C267.281 209.538 267.744 209.5 268.189 209.5V209.497ZM228.626 171.39C228.424 171.39 228.207 171.343 228.021 171.397C217.643 174.34 207.568 178.011 198.379 183.801C193.841 186.662 189.879 190.053 187.38 194.963C184.856 199.914 183.507 205.183 182.814 210.644C182.556 212.693 182.533 214.77 182.404 216.846H185.395C185.556 208.259 187.428 200.317 192.435 193.252C197.837 185.632 208.044 180.35 212.85 180.186C200.897 187.863 195.766 198.896 196.277 212.812C197.459 212.794 198.01 212.311 198.038 211.196C198.057 210.361 198.174 209.522 198.309 208.697C200.011 198.502 204.965 190.069 212.403 183.044C214.731 180.845 217.275 178.875 219.808 176.726C218.945 176.811 218.182 176.89 217.221 176.984C217.432 176.578 217.53 176.348 217.662 176.143C219.373 173.54 222.336 173.436 224.869 173.114C226.48 172.909 227.34 171.885 228.626 171.39ZM297.755 216.897C297.226 212.976 296.914 209.22 296.186 205.545C294.336 196.211 289.845 188.692 281.387 183.675C273.382 178.929 264.924 175.361 256.068 172.638C254.518 172.162 252.949 171.75 251.385 171.308C252.274 172.153 253.33 173.25 254.253 173.149C256.396 172.916 258.177 173.833 260.036 174.403C261.048 174.715 261.823 175.796 262.702 176.53C262.598 176.663 262.491 176.795 262.387 176.927C261.656 176.874 260.928 176.82 260.115 176.76C262.513 178.79 264.87 180.615 267.038 182.644C275.33 190.409 280.813 199.659 281.774 211.218C281.869 212.365 282.48 212.806 283.574 212.819C283.958 206.195 282.827 199.948 279.918 194.043C277.016 188.153 272.525 183.712 267.224 180.016C285.625 185.376 294.059 198.177 294.522 216.894H297.752L297.755 216.897ZM192.728 216.534C192.987 216.837 193.018 216.906 193.05 216.906C206.327 216.925 219.6 216.944 232.877 216.938C233.189 216.938 233.693 216.783 233.785 216.566C234.828 214.086 235.808 211.58 236.766 209.182C233.804 209.182 231.027 209.151 228.254 209.188C220.133 209.299 212.046 209.91 204.061 211.426C200.582 212.088 197.087 212.85 194.118 214.971C193.548 215.378 193.157 216.04 192.728 216.534ZM243.154 209.292C243.964 211.328 244.881 213.481 245.666 215.677C246.019 216.667 246.494 216.991 247.569 216.988C260.266 216.944 272.96 216.963 285.657 216.963C286.105 216.963 286.552 216.925 287.22 216.897C286.483 215.034 285.058 214.158 283.561 213.723C279.726 212.611 275.866 211.448 271.933 210.833C266.878 210.049 261.75 209.617 256.639 209.34C252.199 209.1 247.736 209.289 243.154 209.289V209.292ZM218.604 56.1182V170.413C220.013 170.124 221.022 170.161 221.018 168.387C220.952 131.519 220.968 94.6504 220.962 57.7821C220.962 57.2306 220.911 56.6791 220.886 56.1182H218.604ZM8.58519 110.975C8.49695 110.975 8.40556 110.975 8.31732 110.975C7.47274 115.582 6.5872 120.183 5.8025 124.8C5.17222 128.497 4.20473 132.212 4.17952 135.924C4.02825 157.559 4.11334 179.196 4.11649 200.834C4.11649 201.395 4.11649 201.956 4.11649 202.479C5.89704 202.835 5.38651 201.622 5.38651 200.941C5.40857 179.672 5.40542 158.403 5.40227 137.135C5.40227 135.559 5.32979 133.983 5.40542 132.411C5.42433 132.055 5.90649 131.434 6.19957 131.421C8.17551 131.333 10.1546 131.374 12.1368 131.374V202.574C12.6001 202.539 13.035 202.507 13.5487 202.473C13.5487 201.991 13.5487 201.628 13.5487 201.266C13.5487 179.051 13.5487 156.837 13.5455 134.623C13.5455 134.254 13.5802 133.879 13.514 133.523C12.1211 125.894 10.7155 118.267 9.31002 110.641C9.23753 110.644 9.16505 110.65 9.09257 110.653C9.44868 116.427 9.80479 122.197 10.164 128.002H7.53577C7.89188 122.232 8.23854 116.603 8.58519 110.972V110.975ZM146.589 202.501V131.5H153.219V202.47C154.867 202.879 154.436 201.701 154.436 201.004C154.454 181.157 154.445 161.306 154.454 141.458C154.454 137.009 154.451 132.59 153.515 128.178C152.255 122.232 151.319 116.216 150.241 110.228C150.358 115.541 150.635 120.829 151.032 126.111C151.196 128.289 150.947 128.547 148.501 127.847C148.88 122.002 149.255 116.134 149.633 110.266C148.564 114.949 147.666 119.654 146.866 124.371C146.229 128.125 145.249 131.894 145.221 135.663C145.066 157.401 145.151 179.143 145.158 200.881C145.158 201.395 145.158 201.909 145.158 202.501H146.582H146.589ZM186.009 216.953C187.922 216.953 189.693 216.979 191.461 216.928C191.726 216.922 192.003 216.578 192.234 216.352C193.072 215.526 193.942 214.722 194.707 213.83C195.127 213.342 195.593 212.718 195.646 212.119C195.854 209.778 195.766 207.408 196.04 205.076C196.775 198.83 199.009 193.132 202.992 188.25C204.965 185.83 207.297 183.703 209.447 181.469C202.063 184.128 196.006 188.607 191.736 195.347C187.591 201.887 186.11 209.144 186.009 216.953ZM293.655 216.884C294.386 210.49 291.903 201.058 287.983 195.073C283.848 188.761 274.857 181.951 270.187 181.655C274.756 185.027 278.27 189.205 280.697 194.251C283.401 199.873 284.456 205.845 284.308 212.062C284.296 212.623 284.639 213.317 285.039 213.736C286.051 214.792 287.192 215.728 288.474 216.887H293.655V216.884ZM11.2072 202.511V134.651H7.97067V202.511H11.2072ZM214.977 45.3845V51.3879H251.036V45.3845H214.977ZM150.518 202.536V134.623H147.531V202.536H150.518ZM263.087 209.069C262.318 200.339 256.371 190.538 250.131 188.761C249.797 195.322 249.466 201.842 249.132 208.388C254.017 208.624 258.552 208.842 263.087 209.065V209.069ZM229.751 188.417C221.192 192.978 218.378 200.667 216.537 209.075C221.264 208.845 225.894 208.618 230.741 208.385C230.413 201.779 230.091 195.3 229.751 188.417ZM155.523 205.473C156.011 208.961 156.509 212.362 156.954 215.772C157.092 216.834 157.477 217.54 158.725 217.42C158.778 218.488 158.829 219.459 158.882 220.53C160.764 220.53 162.538 220.578 164.306 220.492C164.681 220.474 165.223 220.036 165.361 219.667C165.979 218.012 166.483 216.317 168.954 217.01C169.244 213.027 169.512 209.292 169.789 205.476H155.523V205.473ZM145.101 203.216C144.398 208.044 143.73 212.611 143.065 217.187H156.591C155.955 212.762 155.356 208.473 154.688 204.193C154.631 203.831 154.111 203.264 153.793 203.257C150.919 203.185 148.041 203.213 145.098 203.213L145.101 203.216ZM4.1228 203.264C3.43894 207.962 2.77084 212.564 2.09014 217.243H15.6191C14.929 212.523 14.2514 207.912 13.5739 203.264H4.1228ZM251.883 106.831C253.844 105.926 254.717 104.754 254.701 102.491C254.578 86.2708 254.635 70.0474 254.635 53.8271V52.015H251.883V106.834V106.831ZM210.846 209.689C210.928 200.44 214.599 192.707 220.521 185.915C224.794 181.015 229.89 177.101 235.376 173.656C235.906 173.322 236.208 172.626 236.615 172.099C236.489 171.992 236.363 171.885 236.237 171.775C235.918 171.939 235.575 172.065 235.288 172.27C231.112 175.232 226.732 177.952 222.821 181.229C214.965 187.819 208.952 195.877 205.243 205.508C204.644 207.061 204.59 208.826 204.253 210.673C206.651 210.313 208.649 210.014 210.843 209.683L210.846 209.689ZM275.629 210.676C275.286 208.823 275.213 207.067 274.627 205.504C272.1 198.773 268.252 192.826 263.477 187.472C257.783 181.087 251.13 175.9 243.488 171.885C243.734 172.607 244.058 173.316 244.607 173.732C248.02 176.319 251.666 178.629 254.893 181.428C260.581 186.363 265.085 192.275 267.338 199.564C268.34 202.81 268.712 206.248 269.399 209.737C271.148 209.998 273.19 210.304 275.632 210.67L275.629 210.676ZM75.4738 181.85C75.7512 183.416 76.1577 184.721 76.1797 186.029C76.2585 191.065 76.2144 196.104 76.2144 201.14C76.2144 201.694 76.2144 202.249 76.2144 202.807H82.5645C82.5645 202.123 82.5645 201.553 82.5645 200.982C82.5645 195.839 82.5487 190.696 82.5866 185.556C82.5897 185.033 82.9364 184.516 83.2295 183.693C83.1948 183.391 83.1097 182.631 83.053 182.111C82.5771 182.263 82.0225 182.638 81.6884 182.496C81.1464 182.266 80.8155 181.535 80.2734 181.317C79.7471 181.109 79.0601 181.235 78.4551 181.298C77.497 181.399 77.0748 183.432 75.4738 181.844V181.85ZM74.6167 202.841V183.936C74.4528 184.321 74.4181 184.674 74.229 184.809C72.7794 185.843 71.0587 186.618 69.899 187.901C68.9473 188.953 68.5439 188.644 67.9987 187.916C67.7592 188.562 67.5386 189.142 67.3274 189.728C67.3117 189.769 67.3779 189.842 67.4062 189.899C67.6268 190.346 68.0176 190.79 68.0365 191.247C68.1121 193.028 68.068 194.815 68.068 196.598C68.068 198.675 68.068 200.755 68.068 202.838H74.6198L74.6167 202.841ZM7.44123 202.514V134.661H6.06091V202.514H7.44123ZM151.341 134.68V202.596C151.861 202.542 152.283 202.501 152.762 202.454C152.762 201.95 152.762 201.587 152.762 201.222C152.759 179.817 152.756 158.41 152.753 137.005C152.753 136.533 152.727 136.06 152.759 135.59C152.835 134.468 152.242 134.405 151.341 134.683V134.68ZM91.1111 189.577C91.0103 189.234 90.8306 188.619 90.61 187.875C89.6646 190.189 89.173 187.819 88.5301 187.655C87.7675 187.463 87.2223 186.511 86.5069 186C85.8294 185.515 85.0478 185.175 84.2474 184.733V202.823H90.7109C90.7109 198.902 90.6983 195.089 90.7267 191.276C90.7298 190.778 90.9441 190.283 91.1111 189.577ZM108.217 212.185V217.24H125.424C125.424 216.162 125.367 215.173 125.436 214.193C125.534 212.819 124.715 212.226 123.58 212.211C118.497 212.151 113.41 212.185 108.214 212.185H108.217ZM33.3616 217.212H50.3319V212.204C45.173 212.204 40.1371 212.182 35.1043 212.223C34.0643 212.233 33.3174 212.749 33.3553 213.975C33.3868 215.018 33.3616 216.062 33.3616 217.212ZM239.94 202.851C238.023 207.682 236.23 212.201 234.396 216.824H245.502C243.652 212.176 241.865 207.685 239.94 202.851ZM40.1812 159.787V184.812C42.175 184.304 43.173 183.107 43.1751 181.223C43.1751 174.712 43.1751 168.201 43.1751 161.69C43.1751 161.076 43.1751 160.461 43.1751 159.787H40.1812ZM213.89 81.5122V52.056H211.445V81.5122H213.89ZM114.838 157.524C116.303 157.524 117.734 157.376 119.07 157.666C119.297 157.716 119.121 159.648 119.121 160.71C119.121 168.69 119.111 176.669 119.146 184.648C119.146 185.294 119.477 185.94 119.653 186.586C119.786 186.561 119.918 186.533 120.051 186.508C120.051 186.114 120.051 185.717 120.051 185.323C120.051 178.027 119.94 170.729 120.079 163.433C120.199 157.127 118.248 151.177 117.35 145.045C117.429 148.287 117.652 151.511 117.901 154.732C117.917 154.927 118.141 155.101 118.254 155.296C118.5 155.722 118.736 156.156 118.976 156.588C118.541 156.793 118.122 157.067 117.662 157.184C117.268 157.285 116.798 157.297 116.414 157.184C115.932 157.039 115.5 156.721 115.046 156.478C115.317 156.081 115.591 155.687 115.859 155.29C115.951 155.157 116.095 155.025 116.108 154.883C116.37 151.511 116.619 148.139 116.868 144.767C115.802 149.441 114.45 154.124 114.205 158.86C113.792 166.714 114.082 174.602 114.11 182.477C114.11 182.839 114.435 183.202 114.608 183.564C114.687 183.517 114.766 183.47 114.841 183.422V157.53L114.838 157.524ZM118.383 184.828V159.809H115.541C115.541 160.477 115.541 161.044 115.541 161.615C115.541 168.122 115.544 174.633 115.547 181.141C115.547 183.019 116.493 184.248 118.383 184.828ZM98.7659 202.854C98.7659 201.178 98.6997 199.558 98.8006 197.954C98.8384 197.377 99.2859 196.829 99.5191 196.327C98.0253 196.104 99.4182 194.427 98.8415 193.683C98.3058 193.907 97.581 194.449 97.3225 194.279C95.9202 193.356 94.6344 192.253 93.3013 191.222C93.0618 191.036 92.7971 190.882 92.5419 190.712C92.4189 191.027 92.1889 191.345 92.1857 191.66C92.1605 195.363 92.17 199.069 92.17 202.854H98.7596H98.7659ZM206.884 192.943C201.899 195.609 198.429 206.781 198.807 212.025C200.121 211.706 201.426 211.334 202.75 211.089C203.645 210.922 203.859 210.509 203.928 209.617C204.121 207.067 204.357 204.509 204.817 201.997C205.378 198.943 206.188 195.937 206.884 192.943ZM281.346 212.075C280.454 204.739 279.026 197.856 273.001 192.949C274.662 198.59 275.837 204.291 276.039 210.172C276.048 210.433 276.395 210.837 276.66 210.912C278.147 211.328 279.66 211.665 281.346 212.075ZM66.4104 190.721C66.1142 190.721 65.8337 190.633 65.7076 190.734C64.7653 191.515 63.968 192.647 62.8966 193.037C62.0331 193.353 61.3933 195.883 60.117 193.617C59.8365 194.645 59.575 195.606 59.326 196.51C60.7568 198.319 59.2378 200.787 60.1044 202.841H66.4104V190.721ZM155.356 204.767C160.054 204.767 164.555 204.783 169.055 204.739C169.414 204.735 169.991 204.401 170.082 204.105C170.451 202.908 170.668 201.663 170.936 200.462H154.959C155.094 201.95 155.22 203.317 155.353 204.767H155.356ZM214.81 169.276H182.858V170.943H214.895C214.864 170.325 214.839 169.824 214.81 169.276ZM115.352 205.766C114.444 206.201 114.012 208.246 112.9 206.188C112.859 206.109 111.901 206.377 111.507 206.67C110.76 207.228 110.212 208.155 109.402 208.501C107.814 209.185 108.022 210.285 108.211 211.53H122.928C121.897 210.547 120.816 209.68 119.584 209.286C118.257 208.861 116.789 208.876 115.352 208.697V205.766ZM35.4446 211.546H50.3193C50.7227 209.998 50.3949 208.955 48.9421 208.249C48.2268 207.903 47.754 207.09 47.0923 206.595C46.7424 206.333 45.8727 206.103 45.8254 206.185C44.8295 207.962 44.2024 206.431 43.4744 205.801C43.3452 208.921 43.0395 209.324 40.0552 209.185C38.0918 209.094 37.0771 210.421 35.4478 211.542L35.4446 211.546ZM59.7767 217.221V212.315H52.1219V217.221H59.7767ZM61.5761 212.296V217.193H69.1962V212.296H61.5761ZM87.8526 212.327H80.1285V217.212H87.8526V212.327ZM89.6079 212.277V217.224H97.2154V212.277H89.6079ZM98.9298 217.209H106.455V212.318H98.9298V217.209ZM70.9011 217.221H78.4046V212.277H70.9011V217.221ZM38.7631 186.271C38.9112 186.29 39.0593 186.306 39.2074 186.325C39.3303 185.619 39.5572 184.916 39.5604 184.21C39.5887 180.277 39.5824 176.344 39.5509 172.415C39.5163 167.861 39.4154 163.307 39.4091 158.753C39.4091 157.682 39.2925 156.087 39.8913 155.659C40.8682 154.959 40.7674 154.162 40.8777 153.361C41.0888 151.814 41.1739 150.248 41.2558 148.684C41.3094 147.704 41.2653 146.718 41.2653 145.732C40.8871 146.872 40.6665 147.994 40.4774 149.123C39.8976 152.561 38.9364 155.993 38.8387 159.447C38.5992 167.933 38.7631 176.433 38.7631 184.926C38.7631 185.373 38.7631 185.821 38.7631 186.268V186.271ZM41.8452 145.082C42.0878 148.404 42.3179 151.577 42.5542 154.751C42.5637 154.899 42.592 155.123 42.6834 155.176C44.1867 156.008 43.7707 157.59 43.8558 158.785C44.048 161.441 43.8242 164.126 43.8148 166.802C43.7959 172.358 43.8085 177.914 43.8085 183.567C44.1583 183.41 44.5963 183.303 44.5963 183.199C44.5648 170.486 45.7025 157.688 41.842 145.086L41.8452 145.082ZM52.1471 211.571H60.1769C59.8019 210.534 59.701 209.526 59.1558 208.917C58.1758 207.827 56.9278 206.982 55.9193 206.138C55.1788 206.841 54.4413 207.903 53.4266 208.413C51.9895 209.135 51.8036 210.102 52.1471 211.568V211.571ZM83.9417 206.179C83.2484 206.828 82.5078 207.884 81.4899 208.391C79.9898 209.144 79.8322 210.14 80.201 211.539H87.8021C88.1362 210.096 87.9566 209.106 86.5164 208.391C85.4827 207.877 84.7043 206.856 83.9385 206.176L83.9417 206.179ZM93.3549 206.103C92.6333 206.781 91.8895 207.846 90.8685 208.353C89.2991 209.135 89.3841 210.219 89.6268 211.527H97.165C97.5684 210.115 97.3667 209.198 96.0179 208.47C94.9716 207.906 94.1869 206.863 93.3581 206.103H93.3549ZM65.3074 206.116C64.592 206.784 63.8483 207.846 62.8304 208.35C61.2704 209.122 61.3492 210.216 61.5541 211.539H69.1269C69.4483 210.118 69.3254 209.138 67.8852 208.407C66.8705 207.893 66.1173 206.859 65.3042 206.113L65.3074 206.116ZM102.667 206.191C101.876 206.923 101.158 207.931 100.181 208.407C98.6745 209.138 98.6745 210.175 98.9896 211.552H106.893C106.477 210.477 106.348 209.478 105.794 208.854C104.886 207.83 103.704 207.052 102.667 206.191ZM74.6797 206.125C73.8698 206.872 73.1229 207.887 72.1207 208.407C70.649 209.169 70.6585 210.203 70.9642 211.52H78.3574C78.7702 209.951 78.4109 208.961 76.9834 208.221C76.0663 207.745 75.3919 206.796 74.6797 206.125ZM239.946 195.99C237.797 199.838 237.437 203.869 237.232 207.956C238.099 205.845 238.966 203.736 239.955 201.322C240.973 203.822 241.846 205.964 242.719 208.107C242.435 203.979 242.136 199.882 239.946 195.993V195.99ZM202.296 175.093H182.789C182.817 175.683 182.839 176.168 182.868 176.732C186.659 176.732 190.321 176.656 193.976 176.757C196.828 176.833 199.586 176.644 202.296 175.093ZM51.9864 192.13C51.9234 192.064 51.8635 192.001 51.8005 191.934C51.6649 191.991 51.5105 192.026 51.3971 192.108C43.8621 197.541 36.3176 202.964 28.8204 208.451C28.3382 208.804 28.2153 209.645 27.9254 210.26C28.0703 210.342 28.2153 210.424 28.3603 210.506C36.2356 204.379 44.111 198.253 51.9864 192.127V192.13ZM100.351 196.923V202.876H108.497C106.336 202.246 107.52 200.714 107.076 199.778C106.468 200.062 105.819 200.617 105.201 200.579C104.681 200.547 104.215 199.813 103.701 199.419C102.661 198.625 101.602 197.856 100.348 196.923H100.351ZM107.719 192.445C107.634 192.539 107.549 192.634 107.464 192.725C115.068 198.637 122.676 204.546 130.28 210.458C130.45 210.307 130.62 210.156 130.787 210.005C130.334 209.362 130.006 208.545 129.404 208.098C125.673 205.318 121.885 202.618 118.106 199.901C114.646 197.412 111.179 194.928 107.716 192.445H107.719ZM51.1071 202.832H58.1663V196.955C56.9152 197.894 55.932 198.729 54.8542 199.413C53.9151 200.008 53.0484 201.691 51.8981 199.936C51.624 200.935 51.3561 201.924 51.1071 202.832ZM74.4213 174.68C75.6283 173.744 76.5548 172.9 77.601 172.251C78.6347 171.608 78.6568 170.76 78.3196 169.837C77.7901 168.381 77.1504 166.963 76.5737 165.563C76.0978 165.639 75.7039 165.702 75.2438 165.775C74.9759 168.661 74.7112 171.507 74.4181 174.68H74.4213ZM84.2411 174.636C83.9543 171.397 83.699 168.519 83.4406 165.598C82.9143 165.645 82.4447 165.686 82.0414 165.721C81.7073 166.515 81.3953 167.227 81.1054 167.946C80.2377 170.091 80.7031 171.888 82.5015 173.338C82.9458 173.694 83.4122 174.019 84.2379 174.633L84.2411 174.636ZM47.2152 205.136C47.8234 206.856 50.0892 208.848 51.3057 208.857C52.5631 208.867 54.933 206.686 55.3269 205.136H47.2152ZM56.5591 205.158C57.1736 206.863 59.5214 208.914 60.7221 208.848C61.9732 208.782 64.2107 206.721 64.674 205.158H56.5622H56.5591ZM75.269 205.139C75.8489 206.841 78.1651 208.87 79.3532 208.848C80.7115 208.823 82.9647 206.752 83.365 205.139H75.269ZM84.6381 205.164C85.1896 206.806 87.5847 208.911 88.7759 208.854C89.9892 208.794 92.2362 206.737 92.7499 205.164H84.6381ZM111.655 205.092C110.067 205.092 108.718 205.092 107.369 205.092C106.02 205.092 104.703 205.092 103.31 205.092C103.925 206.853 106.2 209.065 107.369 208.807C109.26 208.391 110.703 207.203 111.655 205.092ZM74.27 205.186H65.8022C66.6373 207.19 68.1374 208.662 69.9337 208.716C71.7898 208.772 73.2111 207.181 74.2668 205.186H74.27ZM102.308 205.186H93.7993C94.7321 207.14 96.1628 208.678 97.9812 208.719C99.8437 208.763 101.265 207.184 102.308 205.186ZM76.7249 159.592C76.6209 159.696 76.5201 159.803 76.4161 159.907C76.9298 160.499 77.4844 161.06 77.9445 161.69C78.2912 162.166 78.7482 162.727 78.7513 163.253C78.7608 164.817 78.4834 166.38 78.5023 167.943C78.5086 168.46 79.0727 168.967 79.3816 169.477C79.6999 168.964 80.2797 168.456 80.286 167.936C80.3081 166.48 80.1789 165.009 79.9425 163.569C79.7913 162.645 79.7534 162.031 80.7777 161.574C81.3229 161.331 81.66 160.625 82.0918 160.127C79.9551 161.93 78.5496 161.838 76.7218 159.582L76.7249 159.592ZM75.1745 202.797C75.269 202.797 75.3635 202.797 75.4581 202.797V184.752C75.3635 184.752 75.269 184.752 75.1745 184.756V202.794V202.797ZM152.529 132.07H147.017V133.901H152.529V132.07ZM6.04831 133.882H11.5633V132.095H6.04831V133.882ZM111.775 204.342C111.794 204.165 111.81 203.989 111.828 203.812C109.749 203.166 107.533 203.664 105.393 203.541C104.609 203.497 103.808 203.683 103.017 203.762C103.049 203.954 103.077 204.149 103.109 204.342H111.775ZM102.503 204.386C101.965 203.554 96.6324 203.109 94.2562 203.551C93.9978 203.598 93.7961 203.941 93.3013 204.386H102.503ZM74.9948 203.535C75.4203 204.537 81.3291 204.874 83.7557 203.979C80.8974 203.239 77.9761 203.636 74.9948 203.535ZM74.2984 204.36C74.3425 204.228 74.3898 204.099 74.4339 203.966C74.0841 203.818 73.7374 203.557 73.3782 203.535C68.3517 203.242 66.0322 203.469 65.5721 204.36H74.2984ZM47.0261 203.743C47.4011 204.524 52.79 204.849 55.6357 204.263C55.2071 203.44 49.7142 203.109 47.0261 203.743ZM56.3007 204.376H64.863L64.9828 203.91C64.5763 203.781 64.1729 203.551 63.7632 203.535C57.536 203.308 56.7734 203.39 56.3007 204.376ZM92.898 204.376C92.9295 204.096 92.961 203.815 92.9925 203.535C90.3579 203.513 87.7234 203.5 85.0888 203.547C84.8304 203.551 84.5814 203.878 84.3261 204.058C84.3797 204.165 84.4333 204.269 84.4869 204.376H92.898ZM91.2466 202.81C91.3475 202.81 91.4452 202.81 91.546 202.81V190.63H91.2466V202.807V202.81ZM182.83 182.458C184.897 183.098 186.217 182.011 187.74 180.908H182.83V182.458ZM105.62 199.879C105.753 199.901 105.882 199.923 106.014 199.948C105.957 199.495 106.074 198.82 105.819 198.619C103.78 197.011 101.671 195.496 99.4056 193.822V195.439C99.7208 195.278 100.023 195.124 100.427 194.916C100.502 195.483 100.562 195.921 100.622 196.391C102.195 195.105 101.571 196.898 101.917 197.26C103.493 196.119 102.822 197.859 103.153 198.253C104.161 197.497 104.18 197.512 104.404 199.148C104.539 198.886 104.687 198.593 104.839 198.3C104.98 198.395 105.122 198.486 105.264 198.581C105.381 199.012 105.5 199.447 105.617 199.879H105.62ZM83.4343 184.837C83.3524 184.828 83.2673 184.815 83.1853 184.806V202.794H83.4343V184.837ZM51.5074 209.614C51.4097 209.614 51.312 209.611 51.2143 209.608V217.079C51.312 217.079 51.4097 217.08 51.5074 217.076V209.614ZM69.8076 217.196H70.0566V209.563C69.9746 209.57 69.8895 209.576 69.8076 209.582V217.196ZM79.183 217.152C79.2839 217.146 79.3816 217.136 79.4824 217.13V209.582C79.3816 209.582 79.2839 209.582 79.183 209.585V217.149V217.152ZM98.2428 209.456C97.4738 210.534 97.5022 216.364 98.2428 217.259V209.456ZM107.59 209.617C107.492 209.617 107.398 209.611 107.3 209.611V217.143C107.398 217.143 107.492 217.143 107.59 217.143V209.62V209.617ZM263.9 168.62V170.965H265.68V168.62H263.9ZM43.569 159.065C43.2097 157.042 41.7128 158.082 40.8367 157.877C40.5657 157.814 40.1402 158.407 39.7841 158.7C39.8976 158.823 40.011 158.942 40.1245 159.065H43.5721H43.569ZM118.888 159.046C118.494 156.973 116.987 158.126 116.073 157.877C115.878 157.824 115.494 158.454 114.933 159.046H118.884H118.888ZM111.176 202.958C111.22 202.86 111.264 202.766 111.309 202.668C110.127 201.783 108.942 200.897 107.584 199.879V201.713C107.914 201.559 108.22 201.417 108.623 201.228C108.696 201.795 108.753 202.243 108.759 202.28C109.711 202.545 110.442 202.75 111.176 202.955V202.958ZM67.3873 190.91C67.318 190.869 67.2487 190.828 67.1793 190.784V202.624C67.2487 202.624 67.318 202.624 67.3873 202.624V190.91ZM261.3 176.688C261.404 176.521 261.505 176.351 261.609 176.184C260.786 174.52 259.087 174.721 257.543 174.567C258.794 175.273 260.046 175.982 261.3 176.688ZM222.393 174.523C220.792 174.674 219.071 174.576 218.261 176.25C218.343 176.401 218.425 176.549 218.507 176.701C219.802 175.976 221.097 175.248 222.393 174.523ZM51.0032 199.964C49.6922 200.938 48.5198 201.808 47.3475 202.678C47.4042 202.772 47.4578 202.864 47.5145 202.958C48.2205 202.756 48.9264 202.555 49.5346 202.381C49.9254 202.016 50.3256 201.641 50.7258 201.266C50.8172 201.363 50.9086 201.461 51.0032 201.559V199.964ZM99.4151 202.816C99.5033 202.816 99.5916 202.813 99.6798 202.81V197.254C99.5916 197.254 99.5033 197.257 99.4151 197.26V202.816ZM56.9089 197.512C56.8207 196.797 56.7639 196.365 56.6883 195.748C55.4498 196.662 54.3689 197.459 53.2722 198.269C53.7008 198.6 54.0695 198.883 54.4256 199.161C54.5012 198.691 54.58 198.215 54.6903 197.528C55.1315 197.894 55.3773 198.099 55.6389 198.313C55.7177 197.824 55.7933 197.355 55.9004 196.69C56.2849 197.002 56.4961 197.175 56.9089 197.509V197.512ZM119.256 208.826C119.288 208.76 119.323 208.694 119.354 208.627C118.257 207.818 117.161 207.008 115.9 206.078V207.72C116.228 207.584 116.505 207.468 116.868 207.316C116.937 207.852 116.987 208.259 117 208.35C117.835 208.527 118.544 208.675 119.256 208.826ZM260.808 168.636H258.949C258.996 170.13 259.006 170.136 260.808 170.026V168.636ZM150.417 123.152C148.574 123.098 149.135 124.245 149.192 125.288C149.73 125.21 150.156 125.15 150.66 125.077C150.575 124.384 150.506 123.829 150.421 123.152H150.417ZM41.8389 207.096C42.3053 207.474 42.5448 207.669 42.7748 207.858V206.056C41.5521 206.986 40.4774 207.805 39.4028 208.621C39.8818 208.782 40.1655 208.609 40.4774 208.527C40.7894 208.445 41.1235 208.454 41.5489 208.413C41.5899 208.227 41.6844 207.805 41.842 207.096H41.8389ZM60.7347 209.598C60.6622 209.598 60.5897 209.601 60.5173 209.604V217.045C60.5897 217.045 60.6622 217.042 60.7347 217.039V209.598ZM9.79848 123.413C8.10618 122.833 8.12193 123.669 8.20072 124.4C8.23223 124.696 8.5978 124.958 8.81209 125.235C9.11778 124.668 9.42662 124.1 9.79848 123.413ZM9.60625 127.554C9.7323 127.387 9.85836 127.22 9.98442 127.053C9.57473 126.722 9.13984 126.108 8.76482 126.146C8.39295 126.183 8.08727 126.874 7.52317 127.554H9.60625ZM46.276 203.443C45.3905 204.156 44.7003 204.71 43.9787 205.29C44.3946 205.731 44.6625 206.018 44.965 206.336C45.047 205.832 45.1195 205.359 45.2266 204.694C45.6584 205.025 45.9514 205.246 46.2729 205.492V203.44L46.276 203.443ZM88.5427 217.042C88.6215 217.032 88.7034 217.026 88.7822 217.016V209.626H88.5427V217.042ZM149.608 125.827C149.431 125.95 149.251 126.076 149.075 126.199C149.047 126.637 149.018 127.075 148.984 127.62C149.623 127.586 150.115 127.561 150.61 127.535C150.707 127.397 150.808 127.258 150.906 127.119L149.611 125.827H149.608Z" fill="url(#paint0_linear_207_2562)"/>
<path d="M118.788 93.9068C115.639 93.9068 112.491 93.932 109.34 93.9004C106.582 93.8721 104.641 92.1924 104.625 89.8887C104.609 87.5252 106.8 85.7288 109.573 85.6784C110.963 85.6532 112.255 85.3255 113.175 84.0176C115.066 81.3295 119.191 81.0238 121.844 83.2077C122.279 83.567 122.969 83.6489 123.562 83.7813C126.679 84.4809 129.65 85.5996 132.159 87.5756C133.293 88.4674 133.3 90.0053 132.695 91.3636C131.995 92.9393 130.741 93.8343 129.017 93.8595C125.607 93.9099 122.194 93.8752 118.784 93.8752C118.784 93.8878 118.784 93.8973 118.784 93.9099L118.788 93.9068ZM118.828 93.2134V93.2071C122.084 93.2071 125.339 93.2576 128.592 93.1882C130.637 93.1473 132.298 91.5432 132.291 89.8131C132.285 88.0451 130.675 86.6932 128.519 86.5797C128.043 86.5545 127.4 86.4568 127.142 86.1385C126.089 84.8528 124.763 84.5975 123.209 84.6668C122.654 84.692 121.939 84.4273 121.536 84.0428C119.077 81.7013 115.447 82.0669 113.506 84.8937C113.295 85.2026 112.976 85.5492 112.642 85.6438C111.312 86.0156 109.967 86.3717 108.602 86.5829C107.105 86.8129 105.756 87.9191 105.545 89.3025C105.296 90.9192 106.084 92.2995 107.704 92.8605C108.382 93.0968 109.135 93.1851 109.856 93.1945C112.847 93.2292 115.841 93.2103 118.832 93.2103L118.828 93.2134Z" fill="url(#paint1_linear_207_2562)"/>
<path d="M43.3965 116.565C39.9331 116.565 36.4603 116.72 33.0095 116.518C29.9999 116.342 28.2319 113.004 29.9022 110.682C30.6176 109.692 32.0389 109.188 33.1797 108.536C33.8667 108.142 34.6104 107.82 35.3604 107.568C36.5233 107.177 37.7145 106.868 38.8932 106.528C39.3911 106.383 40.0056 106.389 40.3712 106.087C43.4186 103.578 46.8599 104.029 49.4756 107.045C50.1752 107.852 51.6059 108.337 52.731 108.394C55.4444 108.529 57.5873 110.108 57.6724 112.434C57.7606 114.823 55.8414 116.597 53.002 116.635C49.8002 116.679 46.5984 116.644 43.3934 116.644C43.3934 116.616 43.3934 116.591 43.3934 116.562L43.3965 116.565ZM43.4249 115.907C46.6771 115.907 49.9325 115.948 53.1848 115.894C55.687 115.853 57.3667 113.776 56.7207 111.646C56.2889 110.218 54.8645 109.355 53.0304 109.289C51.1805 109.223 49.5607 108.715 48.3852 107.067C47.1183 105.29 44.4554 104.593 42.4606 105.734C40.7809 106.695 39.3092 107.801 37.2009 107.533C36.684 107.467 36.0821 108.211 35.4928 108.539C34.9854 108.822 34.456 109.216 33.9108 109.26C31.6197 109.443 30.0724 110.742 30.085 112.61C30.0976 114.485 31.8088 115.894 34.1377 115.904C37.2324 115.916 40.3302 115.907 43.4249 115.91V115.907Z" fill="url(#paint2_linear_207_2562)"/>
<path d="M182.42 93.5728H215.154V96.3649C214.574 96.3649 214.016 96.3649 213.458 96.3649C203.761 96.3649 194.065 96.3649 184.368 96.3649C181.944 96.3649 181.872 96.2735 182.42 93.5728ZM214.854 94.1873H182.789C182.817 94.7545 182.836 95.1957 182.858 95.6495H214.851V94.1873H214.854Z" fill="url(#paint3_linear_207_2562)"/>
<path d="M215.19 128.273V130.933H182.314C182.267 130.469 182.239 130.066 182.182 129.666C182.015 128.468 182.557 128.169 183.707 128.178C189.682 128.232 195.657 128.203 201.633 128.203C205.616 128.203 209.599 128.203 213.583 128.207C214.093 128.207 214.601 128.251 215.19 128.276V128.273ZM214.846 128.884H182.875V130.353H214.846V128.884Z" fill="url(#paint4_linear_207_2562)"/>
<path d="M215.224 162.878V165.582H182.421C181.841 163.052 181.971 162.878 184.369 162.878C194.031 162.878 203.69 162.878 213.352 162.878H215.224ZM214.856 163.594H182.777C182.812 164.158 182.84 164.605 182.872 165.059H214.856V163.594Z" fill="url(#paint5_linear_207_2562)"/>
<path d="M215.223 145.539V148.366H213.66C203.74 148.366 193.816 148.335 183.895 148.401C182.471 148.41 182.036 147.985 182.156 146.627C182.225 145.823 182.48 145.461 183.293 145.539C183.555 145.565 183.816 145.539 184.081 145.539C193.844 145.539 203.61 145.539 213.373 145.539C213.938 145.539 214.502 145.539 215.223 145.539ZM182.83 147.682H214.896C214.867 147.125 214.848 146.683 214.826 146.248H182.83V147.682Z" fill="url(#paint6_linear_207_2562)"/>
<path d="M215.188 110.868V113.697C214.671 113.697 214.17 113.697 213.669 113.697C203.742 113.697 193.818 113.669 183.891 113.735C182.451 113.745 182.051 113.285 182.167 111.939C182.237 111.126 182.511 110.833 183.315 110.855C184.89 110.896 186.466 110.868 188.042 110.868C196.551 110.868 205.056 110.868 213.565 110.868C214.075 110.868 214.589 110.868 215.191 110.868H215.188ZM214.759 113.07V111.517H182.911V113.07H214.759Z" fill="url(#paint7_linear_207_2562)"/>
<path d="M215.221 157.285V160.001C214.584 160.001 213.982 160.001 213.384 160.001C203.725 160.001 194.069 160.001 184.41 160.001C181.942 160.001 181.888 159.932 182.396 157.285H215.218H215.221ZM214.912 159.336C214.871 158.719 214.84 158.271 214.805 157.754H182.783C182.815 158.35 182.843 158.838 182.872 159.336H214.915H214.912Z" fill="url(#paint8_linear_207_2562)"/>
<path d="M215.174 139.949V142.583C214.578 142.612 214.068 142.656 213.557 142.656C203.848 142.659 194.141 142.659 184.432 142.656C181.964 142.656 181.927 142.602 182.368 139.949H215.171H215.174ZM182.828 141.972H214.916C214.868 141.376 214.827 140.875 214.786 140.358H182.825V141.972H182.828Z" fill="url(#paint9_linear_207_2562)"/>
<path d="M215.207 99.2546V101.943H182.411C181.862 99.3901 181.96 99.2546 184.374 99.2546C194.077 99.2546 203.78 99.2546 213.487 99.2546C214 99.2546 214.514 99.2546 215.207 99.2546ZM182.833 101.489H214.829V99.9164H182.833V101.489Z" fill="url(#paint10_linear_207_2562)"/>
<path d="M215.207 116.606V119.291H182.42C181.818 116.798 181.966 116.603 184.361 116.606C193.961 116.609 203.557 116.606 213.156 116.606C213.777 116.606 214.397 116.606 215.207 116.606ZM182.836 118.888H214.804V117.287H182.836V118.888Z" fill="url(#paint11_linear_207_2562)"/>
<path d="M215.209 122.651C215.231 123.171 215.269 123.634 215.269 124.097C215.269 124.406 215.225 124.718 215.181 125.282C214.56 125.282 213.958 125.282 213.353 125.282C203.71 125.282 194.066 125.282 184.423 125.282C182.839 125.282 182.129 124.405 182.293 122.651H215.209ZM214.847 122.991H182.863V124.633H214.847V122.991Z" fill="url(#paint12_linear_207_2562)"/>
<path d="M182.352 105.236H215.206V107.814C214.506 107.849 213.844 107.912 213.182 107.915C203.574 107.921 193.968 107.918 184.36 107.915C181.977 107.915 181.974 107.902 182.352 105.236ZM214.802 105.643H182.856V107.303H214.802V105.643Z" fill="url(#paint13_linear_207_2562)"/>
<path d="M215.21 134.081V136.652H182.451C181.802 134.273 181.959 134.015 184.2 134.015C194.023 134.002 203.843 134.005 213.665 134.008C214.132 134.008 214.601 134.053 215.21 134.081ZM182.86 136.287H214.784V134.573H182.86V136.287Z" fill="url(#paint14_linear_207_2562)"/>
<path d="M215.201 151.467V153.992H182.312V151.467H215.201ZM214.917 153.642C214.876 152.971 214.844 152.469 214.81 151.946H182.76C182.792 152.567 182.82 153.071 182.851 153.642H214.917Z" fill="url(#paint15_linear_207_2562)"/>
<path d="M182.373 87.8528H215.147V90.3959C214.665 90.4275 214.114 90.4936 213.565 90.4936C203.796 90.4999 194.027 90.4999 184.257 90.4968C181.979 90.4968 181.944 90.4495 182.373 87.8496V87.8528ZM214.807 88.2782H182.836V89.9831H214.807V88.2782Z" fill="url(#paint16_linear_207_2562)"/>
<path d="M256.31 148.782C256.893 152.113 256.751 152.293 253.641 152.022V148.782H256.31ZM254.076 151.455H255.812V149.189C255.182 149.22 254.652 149.245 254.076 149.277V151.458V151.455Z" fill="url(#paint17_linear_207_2562)"/>
<path d="M273.191 148.735H276.45C276.277 149.904 276.283 151.048 275.861 152C275.735 152.283 273.863 152.277 273.727 151.978C273.311 151.061 273.349 149.939 273.191 148.735ZM275.675 149.192C275.026 149.22 274.493 149.245 273.929 149.271V151.448H275.675V149.195V149.192Z" fill="url(#paint18_linear_207_2562)"/>
<path d="M273.156 114.725H276.44C276.286 115.875 276.305 117.013 275.898 117.971C275.778 118.254 273.919 118.273 273.783 117.987C273.349 117.044 273.345 115.907 273.156 114.725ZM275.671 115.295H273.969V117.435H275.671V115.295Z" fill="url(#paint19_linear_207_2562)"/>
<path d="M273.129 166.358C273.343 165.314 273.387 164.18 273.869 163.279C274.027 162.982 275.836 163.049 275.981 163.364C276.356 164.186 276.592 165.459 276.183 166.127C275.849 166.673 274.509 166.606 273.617 166.808C273.453 166.657 273.293 166.506 273.129 166.358ZM275.644 166.061V163.777C274.995 163.808 274.456 163.836 273.945 163.862V166.061H275.644Z" fill="url(#paint20_linear_207_2562)"/>
<path d="M273.137 142.082C273.348 141.039 273.392 139.908 273.868 139C274.019 138.71 275.837 138.78 275.976 139.092C276.345 139.917 276.578 141.194 276.168 141.862C275.831 142.41 274.492 142.338 273.597 142.542C273.442 142.388 273.291 142.237 273.137 142.082ZM275.686 139.615H273.94V141.717H275.686V139.615Z" fill="url(#paint21_linear_207_2562)"/>
<path d="M256.658 142.287H253.402C253.532 141.165 253.5 140.027 253.881 139.051C253.985 138.783 255.854 138.735 255.996 139.028C256.443 139.955 256.456 141.093 256.661 142.287H256.658ZM254.115 139.583V141.739H255.785V139.583H254.115Z" fill="url(#paint22_linear_207_2562)"/>
<path d="M253.789 114.479C254.675 114.69 256.008 114.637 256.332 115.182C256.736 115.853 256.499 117.12 256.124 117.939C255.983 118.251 254.171 118.311 254.016 118.018C253.543 117.114 253.506 115.982 253.301 114.942C253.462 114.788 253.625 114.637 253.786 114.482L253.789 114.479ZM255.812 117.444V115.317H254.095V117.444H255.812Z" fill="url(#paint23_linear_207_2562)"/>
<path d="M253.34 166.559C253.504 165.349 253.447 164.215 253.894 163.332C254.055 163.017 255.981 163.049 256.132 163.373C256.551 164.271 256.46 165.406 256.583 166.562H253.34V166.559ZM255.814 166.058V163.887H254.065V166.058H255.814Z" fill="url(#paint24_linear_207_2562)"/>
<path d="M276.2 132.537H273.414V129.426C276.279 128.698 276.616 129.064 276.2 132.537ZM273.953 129.845V132.013H275.633V129.845H273.953Z" fill="url(#paint25_linear_207_2562)"/>
<path d="M256.621 132.559H253.426C253.523 131.434 253.416 130.296 253.813 129.373C253.946 129.061 255.903 129.01 256.06 129.322C256.508 130.211 256.454 131.352 256.621 132.559ZM254.066 132.139C254.74 132.102 255.279 132.073 255.827 132.042V129.848H254.066V132.139Z" fill="url(#paint26_linear_207_2562)"/>
<path d="M256.662 124.5C256.464 125.704 256.476 126.829 256.025 127.715C255.865 128.03 254.024 128.008 253.895 127.715C253.482 126.792 253.514 125.673 253.359 124.5H256.665H256.662ZM255.811 127.189V124.923H254.094V127.189H255.811Z" fill="url(#paint27_linear_207_2562)"/>
<path d="M276.267 134.273V137.27C273.386 138.008 273.017 137.62 273.462 134.273H276.267ZM275.652 136.949V134.639H273.979V136.949H275.652Z" fill="url(#paint28_linear_207_2562)"/>
<path d="M256.411 137.311C253.458 137.929 253.083 137.503 253.647 134.245H256.411V137.311ZM255.793 136.945V134.651H254.076V136.945H255.793Z" fill="url(#paint29_linear_207_2562)"/>
<path d="M273.145 158.482H276.372C276.283 159.582 276.403 160.707 276.006 161.608C275.861 161.936 273.951 162.018 273.784 161.709C273.321 160.846 273.346 159.714 273.145 158.485V158.482ZM275.688 158.782C275.004 158.816 274.471 158.845 273.939 158.87V161.202H275.688V158.782Z" fill="url(#paint30_linear_207_2562)"/>
<path d="M253.328 156.777C253.514 155.617 253.498 154.508 253.936 153.626C254.088 153.32 255.893 153.326 256.041 153.632C256.473 154.514 256.451 155.624 256.628 156.777H253.328ZM255.758 156.418V154.029C255.121 154.061 254.582 154.086 254.129 154.108V156.418H255.758Z" fill="url(#paint31_linear_207_2562)"/>
<path d="M273.25 124.5H276.442C276.301 125.66 276.367 126.798 275.935 127.699C275.787 128.011 273.827 127.983 273.682 127.668C273.269 126.751 273.36 125.607 273.25 124.504V124.5ZM275.67 124.79C275.002 124.825 274.504 124.85 273.972 124.876V127.176H275.67V124.79Z" fill="url(#paint32_linear_207_2562)"/>
<path d="M253.402 158.514H256.61C256.456 159.661 256.522 160.795 256.078 161.668C255.914 161.99 253.989 161.964 253.844 161.646C253.431 160.745 253.519 159.61 253.402 158.51V158.514ZM255.851 158.914H254.093V161.18H255.851V158.914Z" fill="url(#paint33_linear_207_2562)"/>
<path d="M276.479 156.828H273.262C273.363 155.721 273.255 154.593 273.659 153.695C273.804 153.37 275.72 153.314 275.887 153.632C276.344 154.499 276.303 155.63 276.482 156.828H276.479ZM273.936 156.494C274.623 156.449 275.124 156.421 275.676 156.386V154.124H273.936V156.497V156.494Z" fill="url(#paint34_linear_207_2562)"/>
<path d="M276.505 122.796H273.184C273.351 121.636 273.319 120.527 273.745 119.632C273.886 119.332 275.702 119.317 275.869 119.635C276.326 120.501 276.307 121.617 276.505 122.793V122.796ZM275.661 122.421V120.104H273.978V122.421H275.661Z" fill="url(#paint35_linear_207_2562)"/>
<path d="M256.43 119.635V122.755H253.559V119.635H256.43ZM254.104 120.082V122.383H255.824V120.082H254.104Z" fill="url(#paint36_linear_207_2562)"/>
<path d="M268.516 139H271.229V142.259H268.516V139ZM268.869 141.698H270.643V139.631H268.869V141.698Z" fill="url(#paint37_linear_207_2562)"/>
<path d="M273.363 171.384V168.204H276.25V171.384H273.363ZM275.664 170.981V168.636H273.975V170.981H275.664Z" fill="url(#paint38_linear_207_2562)"/>
<path d="M271.196 152.069H268.559V148.801H271.196V152.069ZM268.896 149.255V151.442H270.632V149.255H268.896Z" fill="url(#paint39_linear_207_2562)"/>
<path d="M271.28 114.744V117.974H268.52V114.744H271.28ZM268.872 117.404H270.647V115.321H268.872V117.404Z" fill="url(#paint40_linear_207_2562)"/>
<path d="M263.555 148.754H266.177V152.038H263.555V148.754ZM265.694 151.464V149.331H263.879V151.464H265.694Z" fill="url(#paint41_linear_207_2562)"/>
<path d="M268.52 129.297C271.535 128.95 271.583 129.01 271.22 132.489H268.52V129.297ZM268.939 129.839V132.108C269.585 132.077 270.124 132.051 270.656 132.029V129.839H268.939Z" fill="url(#paint42_linear_207_2562)"/>
<path d="M266.166 166.619H263.566V163.304H266.166V166.619ZM265.709 163.868H263.904V166.046H265.709V163.868Z" fill="url(#paint43_linear_207_2562)"/>
<path d="M266.215 139V142.268H263.543V139H266.215ZM263.896 139.574V141.751H265.705V139.574H263.896Z" fill="url(#paint44_linear_207_2562)"/>
<path d="M266.189 118.021H263.555V114.753H266.189V118.021ZM263.873 117.397H265.704V115.273H263.873V117.397Z" fill="url(#paint45_linear_207_2562)"/>
<path d="M253.555 147.002V143.917H256.243C257.068 147.055 256.763 147.421 253.555 147.002ZM254.122 144.329V146.706H255.805V144.329H254.122Z" fill="url(#paint46_linear_207_2562)"/>
<path d="M268.512 163.298C271.559 162.995 271.597 163.045 271.206 166.528H268.512V163.298ZM268.871 166.061H270.645V163.877H268.871V166.061Z" fill="url(#paint47_linear_207_2562)"/>
<path d="M273.434 144.049C276.292 143.409 276.724 143.882 276.141 147.055H273.434V144.049ZM275.722 144.367H273.969V146.787C274.625 146.759 275.164 146.734 275.722 146.709V144.367Z" fill="url(#paint48_linear_207_2562)"/>
<path d="M263.48 132.502V129.297H266.188V132.502H263.48ZM263.827 132.036H265.686V129.893H263.827V132.036Z" fill="url(#paint49_linear_207_2562)"/>
<path d="M273.21 109.96H276.418C276.286 111.025 276.362 112.147 275.927 113.007C275.763 113.329 273.891 113.329 273.686 112.97C273.232 112.175 273.343 111.06 273.207 109.96H273.21ZM275.722 110.338H273.97V112.765C274.622 112.733 275.161 112.705 275.722 112.676V110.338Z" fill="url(#paint50_linear_207_2562)"/>
<path d="M256.721 110.234C256.466 111.205 256.396 112.298 255.867 113.083C255.656 113.395 253.944 113.272 253.771 112.919C253.396 112.166 253.201 110.827 253.632 110.307C254.083 109.765 255.353 109.903 256.264 109.746C256.415 109.906 256.566 110.07 256.721 110.231V110.234ZM255.829 110.319H254.099V112.642H255.829V110.319Z" fill="url(#paint51_linear_207_2562)"/>
<path d="M271.268 119.635V122.77H268.504V119.635H271.268ZM270.666 120.133H268.923V122.383H270.666V120.133Z" fill="url(#paint52_linear_207_2562)"/>
<path d="M258.547 114.706H261.166V118.021H258.547V114.706ZM258.941 115.283V117.397H260.781V115.283H258.941Z" fill="url(#paint53_linear_207_2562)"/>
<path d="M266.203 127.788H263.543V124.526H266.203V127.788ZM263.855 127.186H265.67V124.787C264.989 124.825 264.444 124.857 263.855 124.888V127.186Z" fill="url(#paint54_linear_207_2562)"/>
<path d="M271.248 137.431H268.469V134.223H271.248V137.431ZM270.631 136.949V134.645H268.888V136.949H270.631Z" fill="url(#paint55_linear_207_2562)"/>
<path d="M258.488 166.543V163.275H261.139V166.543H258.488ZM260.779 166.055V163.909H258.939V166.055H260.779Z" fill="url(#paint56_linear_207_2562)"/>
<path d="M258.539 138.981H261.164V142.3H258.539V138.981ZM258.898 141.821C259.633 141.789 260.222 141.764 260.786 141.739V139.637H258.898V141.821Z" fill="url(#paint57_linear_207_2562)"/>
<path d="M271.563 156.806H268.367C268.446 155.747 268.358 154.644 268.701 153.698C268.805 153.418 270.633 153.304 270.794 153.594C271.27 154.461 271.307 155.567 271.563 156.806ZM270.665 154.114H268.95V156.487C269.587 156.459 270.091 156.437 270.665 156.408V154.111V154.114Z" fill="url(#paint58_linear_207_2562)"/>
<path d="M261.205 148.814V152.016H258.555V148.814H261.205ZM258.895 149.249V151.448H260.786V149.249H258.895Z" fill="url(#paint59_linear_207_2562)"/>
<path d="M268.554 158.482H271.223V161.589C268.472 162.377 268.043 161.905 268.554 158.482ZM270.703 158.895H268.932V161.296C269.594 161.265 270.136 161.24 270.703 161.214V158.895Z" fill="url(#paint60_linear_207_2562)"/>
<path d="M263.531 161.735V158.53H266.201V161.735H263.531ZM263.894 158.873V161.218H265.69V158.873H263.894Z" fill="url(#paint61_linear_207_2562)"/>
<path d="M271.534 124.491C271.31 125.739 271.298 126.848 270.847 127.737C270.702 128.027 268.865 127.961 268.751 127.677C268.376 126.741 268.433 125.632 268.316 124.491H271.534ZM270.607 127.173V124.797C269.968 124.825 269.467 124.847 268.896 124.873V127.173H270.607Z" fill="url(#paint62_linear_207_2562)"/>
<path d="M263.492 137.437V134.251H266.215V137.437H263.492ZM265.67 136.939V134.516C264.995 134.55 264.453 134.579 263.874 134.607V136.939H265.67Z" fill="url(#paint63_linear_207_2562)"/>
<path d="M263.535 153.553H266.192V156.774H263.535V153.553ZM263.901 154.102V156.393H265.719V154.102H263.901Z" fill="url(#paint64_linear_207_2562)"/>
<path d="M266.228 122.824H263.543V119.61H266.228V122.824ZM265.692 122.446V120.092H263.918V122.446H265.692Z" fill="url(#paint65_linear_207_2562)"/>
<path d="M258.469 127.772V124.529H261.16V127.772H258.469ZM260.813 124.942H258.957V127.179H260.813V124.942Z" fill="url(#paint66_linear_207_2562)"/>
<path d="M261.217 129.288V132.511H258.5V129.288H261.217ZM258.947 129.852V132.026H260.772V129.852H258.947Z" fill="url(#paint67_linear_207_2562)"/>
<path d="M258.496 158.507H261.194V161.747H258.496V158.507ZM260.797 161.236V158.873H258.956V161.236H260.797Z" fill="url(#paint68_linear_207_2562)"/>
<path d="M258.465 156.768V153.604H261.153V156.768H258.465ZM258.915 156.349H260.775V154.032C260.097 154.064 259.543 154.086 258.915 154.114V156.349Z" fill="url(#paint69_linear_207_2562)"/>
<path d="M258.527 119.619H261.181V122.748H258.527V119.619ZM258.836 120.079C258.874 120.905 258.909 121.658 258.946 122.5C259.668 122.468 260.213 122.443 260.809 122.414V120.079H258.839H258.836Z" fill="url(#paint70_linear_207_2562)"/>
<path d="M268.508 168.182H271.252V171.182C268.548 172.121 268.136 171.699 268.508 168.182ZM270.66 168.667H268.892V170.984H270.66V168.667Z" fill="url(#paint71_linear_207_2562)"/>
<path d="M266.221 109.979V113.071H263.523V109.979H266.221ZM263.895 110.323V112.67H265.682V110.323H263.895Z" fill="url(#paint72_linear_207_2562)"/>
<path d="M271.277 109.966V112.869C268.573 113.786 268.075 113.275 268.542 109.966H271.277ZM270.618 112.689V110.373H268.913V112.689H270.618Z" fill="url(#paint73_linear_207_2562)"/>
<path d="M268.458 147.027C268.43 146.403 268.386 145.839 268.383 145.275C268.383 144.868 268.436 144.462 268.474 143.942H271.229V147.027H268.455H268.458ZM268.941 144.351V146.671H270.668V144.351H268.941Z" fill="url(#paint74_linear_207_2562)"/>
<path d="M258.502 134.21H261.152V137.38C258.256 137.809 258.234 137.784 258.502 134.21ZM260.771 136.949V134.613H258.943V136.949H260.771Z" fill="url(#paint75_linear_207_2562)"/>
<path d="M266.205 147.087H263.555V143.942H266.205V147.087ZM263.879 144.345V146.671H265.732V144.345H263.879Z" fill="url(#paint76_linear_207_2562)"/>
<path d="M258.496 113.058V109.938H261.143V113.058H258.496ZM260.838 110.316H258.962V112.62H260.838V110.316Z" fill="url(#paint77_linear_207_2562)"/>
<path d="M261.133 147.093H258.508V143.926H261.133V147.093ZM258.94 146.642H260.783V144.348H258.94V146.642Z" fill="url(#paint78_linear_207_2562)"/>
<path d="M228.609 179.953C230.686 178.352 232.741 176.77 234.796 175.188C234.918 175.241 235.041 175.292 235.167 175.345C234.922 177.205 234.701 179.07 234.395 180.92C234.351 181.194 233.945 181.472 233.642 181.632C232.498 182.237 231.329 182.792 230.097 183.4C229.615 182.282 229.167 181.251 228.609 179.956V179.953ZM229.173 180.11C229.665 181.125 230.043 181.903 230.418 182.675C234.301 180.914 234.859 179.984 234.279 176.158C232.549 177.498 230.875 178.793 229.177 180.11H229.173Z" fill="url(#paint79_linear_207_2562)"/>
<path d="M244.652 174.844C247.114 176.741 249.206 178.355 251.273 179.946C250.738 181.188 250.29 182.231 249.777 183.419C248.491 182.764 247.24 182.156 246.03 181.478C245.765 181.33 245.522 180.945 245.472 180.637C245.185 178.859 244.961 177.069 244.655 174.844H244.652ZM249.591 182.515C249.767 182.099 250.114 181.55 250.221 180.958C250.303 180.507 250.252 179.798 249.966 179.552C248.544 178.349 247.022 177.261 245.487 176.095C245.424 179.225 245.62 182.064 249.591 182.515Z" fill="url(#paint80_linear_207_2562)"/>
<path d="M6.03516 130.791V128.582H11.5659V130.791H6.03516ZM6.30618 129.079C6.70325 129.675 6.87658 130.198 7.08773 130.214C8.23169 130.299 9.3851 130.286 10.5322 130.23C10.7087 130.22 11.0018 129.817 10.9923 129.606C10.9829 129.423 10.6331 129.111 10.4219 129.102C9.22753 129.054 8.03 129.079 6.30933 129.079H6.30618Z" fill="url(#paint81_linear_207_2562)"/>
<path d="M152.594 128.575C153.007 130.851 152.969 130.907 150.842 130.904C149.688 130.904 148.535 130.882 147.385 130.86C147.29 130.86 147.196 130.788 146.984 130.699V128.575H152.594ZM152.361 129.07C150.807 129.07 149.509 129.048 148.213 129.092C147.98 129.099 147.615 129.344 147.567 129.54C147.52 129.735 147.785 130.217 147.923 130.22C149.228 130.265 150.536 130.258 151.841 130.183C151.992 130.173 152.109 129.628 152.361 129.07Z" fill="url(#paint82_linear_207_2562)"/>
</g>
<defs>
<linearGradient id="paint0_linear_207_2562" x1="157.574" y1="45" x2="157.574" y2="221.17" gradientUnits="userSpaceOnUse">
<stop stop-color="#262B3F"/>
<stop offset="1" stop-color="#262B3F" stop-opacity="0.49"/>
</linearGradient>
<linearGradient id="paint1_linear_207_2562" x1="118.86" y1="81.7617" x2="118.86" y2="93.9163" gradientUnits="userSpaceOnUse">
<stop stop-color="#262B3F"/>
<stop offset="1" stop-color="#262B3F" stop-opacity="0.49"/>
</linearGradient>
<linearGradient id="paint2_linear_207_2562" x1="43.4666" y1="104.461" x2="43.4666" y2="116.657" gradientUnits="userSpaceOnUse">
<stop stop-color="#262B3F"/>
<stop offset="1" stop-color="#262B3F" stop-opacity="0.49"/>
</linearGradient>
<linearGradient id="paint3_linear_207_2562" x1="198.647" y1="93.5728" x2="198.647" y2="96.3649" gradientUnits="userSpaceOnUse">
<stop stop-color="#262B3F"/>
<stop offset="1" stop-color="#262B3F" stop-opacity="0.49"/>
</linearGradient>
<linearGradient id="paint4_linear_207_2562" x1="198.671" y1="128.178" x2="198.671" y2="130.933" gradientUnits="userSpaceOnUse">
<stop stop-color="#262B3F"/>
<stop offset="1" stop-color="#262B3F" stop-opacity="0.49"/>
</linearGradient>
<linearGradient id="paint5_linear_207_2562" x1="198.679" y1="162.878" x2="198.679" y2="165.582" gradientUnits="userSpaceOnUse">
<stop stop-color="#262B3F"/>
<stop offset="1" stop-color="#262B3F" stop-opacity="0.49"/>
</linearGradient>
<linearGradient id="paint6_linear_207_2562" x1="198.68" y1="145.529" x2="198.68" y2="148.401" gradientUnits="userSpaceOnUse">
<stop stop-color="#262B3F"/>
<stop offset="1" stop-color="#262B3F" stop-opacity="0.49"/>
</linearGradient>
<linearGradient id="paint7_linear_207_2562" x1="198.67" y1="110.854" x2="198.67" y2="113.735" gradientUnits="userSpaceOnUse">
<stop stop-color="#262B3F"/>
<stop offset="1" stop-color="#262B3F" stop-opacity="0.49"/>
</linearGradient>
<linearGradient id="paint8_linear_207_2562" x1="198.681" y1="157.285" x2="198.681" y2="160.001" gradientUnits="userSpaceOnUse">
<stop stop-color="#262B3F"/>
<stop offset="1" stop-color="#262B3F" stop-opacity="0.49"/>
</linearGradient>
<linearGradient id="paint9_linear_207_2562" x1="198.663" y1="139.949" x2="198.663" y2="142.658" gradientUnits="userSpaceOnUse">
<stop stop-color="#262B3F"/>
<stop offset="1" stop-color="#262B3F" stop-opacity="0.49"/>
</linearGradient>
<linearGradient id="paint10_linear_207_2562" x1="198.672" y1="99.2546" x2="198.672" y2="101.943" gradientUnits="userSpaceOnUse">
<stop stop-color="#262B3F"/>
<stop offset="1" stop-color="#262B3F" stop-opacity="0.49"/>
</linearGradient>
<linearGradient id="paint11_linear_207_2562" x1="198.664" y1="116.606" x2="198.664" y2="119.291" gradientUnits="userSpaceOnUse">
<stop stop-color="#262B3F"/>
<stop offset="1" stop-color="#262B3F" stop-opacity="0.49"/>
</linearGradient>
<linearGradient id="paint12_linear_207_2562" x1="198.769" y1="122.651" x2="198.769" y2="125.282" gradientUnits="userSpaceOnUse">
<stop stop-color="#262B3F"/>
<stop offset="1" stop-color="#262B3F" stop-opacity="0.49"/>
</linearGradient>
<linearGradient id="paint13_linear_207_2562" x1="198.687" y1="105.236" x2="198.687" y2="107.918" gradientUnits="userSpaceOnUse">
<stop stop-color="#262B3F"/>
<stop offset="1" stop-color="#262B3F" stop-opacity="0.49"/>
</linearGradient>
<linearGradient id="paint14_linear_207_2562" x1="198.663" y1="134.006" x2="198.663" y2="136.652" gradientUnits="userSpaceOnUse">
<stop stop-color="#262B3F"/>
<stop offset="1" stop-color="#262B3F" stop-opacity="0.49"/>
</linearGradient>
<linearGradient id="paint15_linear_207_2562" x1="198.757" y1="151.467" x2="198.757" y2="153.992" gradientUnits="userSpaceOnUse">
<stop stop-color="#262B3F"/>
<stop offset="1" stop-color="#262B3F" stop-opacity="0.49"/>
</linearGradient>
<linearGradient id="paint16_linear_207_2562" x1="198.654" y1="87.8496" x2="198.654" y2="90.4989" gradientUnits="userSpaceOnUse">
<stop stop-color="#262B3F"/>
<stop offset="1" stop-color="#262B3F" stop-opacity="0.49"/>
</linearGradient>
<linearGradient id="paint17_linear_207_2562" x1="255.11" y1="148.782" x2="255.11" y2="152.109" gradientUnits="userSpaceOnUse">
<stop stop-color="#262B3F"/>
<stop offset="1" stop-color="#262B3F" stop-opacity="0.49"/>
</linearGradient>
<linearGradient id="paint18_linear_207_2562" x1="274.821" y1="148.735" x2="274.821" y2="152.207" gradientUnits="userSpaceOnUse">
<stop stop-color="#262B3F"/>
<stop offset="1" stop-color="#262B3F" stop-opacity="0.49"/>
</linearGradient>
<linearGradient id="paint19_linear_207_2562" x1="274.798" y1="114.725" x2="274.798" y2="118.193" gradientUnits="userSpaceOnUse">
<stop stop-color="#262B3F"/>
<stop offset="1" stop-color="#262B3F" stop-opacity="0.49"/>
</linearGradient>
<linearGradient id="paint20_linear_207_2562" x1="274.763" y1="163.088" x2="274.763" y2="166.808" gradientUnits="userSpaceOnUse">
<stop stop-color="#262B3F"/>
<stop offset="1" stop-color="#262B3F" stop-opacity="0.49"/>
</linearGradient>
<linearGradient id="paint21_linear_207_2562" x1="274.761" y1="138.816" x2="274.761" y2="142.542" gradientUnits="userSpaceOnUse">
<stop stop-color="#262B3F"/>
<stop offset="1" stop-color="#262B3F" stop-opacity="0.49"/>
</linearGradient>
<linearGradient id="paint22_linear_207_2562" x1="255.032" y1="138.828" x2="255.032" y2="142.287" gradientUnits="userSpaceOnUse">
<stop stop-color="#262B3F"/>
<stop offset="1" stop-color="#262B3F" stop-opacity="0.49"/>
</linearGradient>
<linearGradient id="paint23_linear_207_2562" x1="254.922" y1="114.479" x2="254.922" y2="118.209" gradientUnits="userSpaceOnUse">
<stop stop-color="#262B3F"/>
<stop offset="1" stop-color="#262B3F" stop-opacity="0.49"/>
</linearGradient>
<linearGradient id="paint24_linear_207_2562" x1="254.961" y1="163.112" x2="254.961" y2="166.562" gradientUnits="userSpaceOnUse">
<stop stop-color="#262B3F"/>
<stop offset="1" stop-color="#262B3F" stop-opacity="0.49"/>
</linearGradient>
<linearGradient id="paint25_linear_207_2562" x1="274.88" y1="129.115" x2="274.88" y2="132.537" gradientUnits="userSpaceOnUse">
<stop stop-color="#262B3F"/>
<stop offset="1" stop-color="#262B3F" stop-opacity="0.49"/>
</linearGradient>
<linearGradient id="paint26_linear_207_2562" x1="255.024" y1="129.112" x2="255.024" y2="132.559" gradientUnits="userSpaceOnUse">
<stop stop-color="#262B3F"/>
<stop offset="1" stop-color="#262B3F" stop-opacity="0.49"/>
</linearGradient>
<linearGradient id="paint27_linear_207_2562" x1="255.012" y1="124.5" x2="255.012" y2="127.943" gradientUnits="userSpaceOnUse">
<stop stop-color="#262B3F"/>
<stop offset="1" stop-color="#262B3F" stop-opacity="0.49"/>
</linearGradient>
<linearGradient id="paint28_linear_207_2562" x1="274.786" y1="134.273" x2="274.786" y2="137.585" gradientUnits="userSpaceOnUse">
<stop stop-color="#262B3F"/>
<stop offset="1" stop-color="#262B3F" stop-opacity="0.49"/>
</linearGradient>
<linearGradient id="paint29_linear_207_2562" x1="254.918" y1="134.245" x2="254.918" y2="137.551" gradientUnits="userSpaceOnUse">
<stop stop-color="#262B3F"/>
<stop offset="1" stop-color="#262B3F" stop-opacity="0.49"/>
</linearGradient>
<linearGradient id="paint30_linear_207_2562" x1="274.758" y1="158.482" x2="274.758" y2="161.902" gradientUnits="userSpaceOnUse">
<stop stop-color="#262B3F"/>
<stop offset="1" stop-color="#262B3F" stop-opacity="0.49"/>
</linearGradient>
<linearGradient id="paint31_linear_207_2562" x1="254.978" y1="153.4" x2="254.978" y2="156.777" gradientUnits="userSpaceOnUse">
<stop stop-color="#262B3F"/>
<stop offset="1" stop-color="#262B3F" stop-opacity="0.49"/>
</linearGradient>
<linearGradient id="paint32_linear_207_2562" x1="274.846" y1="124.5" x2="274.846" y2="127.919" gradientUnits="userSpaceOnUse">
<stop stop-color="#262B3F"/>
<stop offset="1" stop-color="#262B3F" stop-opacity="0.49"/>
</linearGradient>
<linearGradient id="paint33_linear_207_2562" x1="255.006" y1="158.51" x2="255.006" y2="161.897" gradientUnits="userSpaceOnUse">
<stop stop-color="#262B3F"/>
<stop offset="1" stop-color="#262B3F" stop-opacity="0.49"/>
</linearGradient>
<linearGradient id="paint34_linear_207_2562" x1="274.872" y1="153.42" x2="274.872" y2="156.828" gradientUnits="userSpaceOnUse">
<stop stop-color="#262B3F"/>
<stop offset="1" stop-color="#262B3F" stop-opacity="0.49"/>
</linearGradient>
<linearGradient id="paint35_linear_207_2562" x1="274.844" y1="119.402" x2="274.844" y2="122.796" gradientUnits="userSpaceOnUse">
<stop stop-color="#262B3F"/>
<stop offset="1" stop-color="#262B3F" stop-opacity="0.49"/>
</linearGradient>
<linearGradient id="paint36_linear_207_2562" x1="254.994" y1="119.635" x2="254.994" y2="122.755" gradientUnits="userSpaceOnUse">
<stop stop-color="#262B3F"/>
<stop offset="1" stop-color="#262B3F" stop-opacity="0.49"/>
</linearGradient>
<linearGradient id="paint37_linear_207_2562" x1="269.872" y1="139" x2="269.872" y2="142.259" gradientUnits="userSpaceOnUse">
<stop stop-color="#262B3F"/>
<stop offset="1" stop-color="#262B3F" stop-opacity="0.49"/>
</linearGradient>
<linearGradient id="paint38_linear_207_2562" x1="274.807" y1="168.204" x2="274.807" y2="171.384" gradientUnits="userSpaceOnUse">
<stop stop-color="#262B3F"/>
<stop offset="1" stop-color="#262B3F" stop-opacity="0.49"/>
</linearGradient>
<linearGradient id="paint39_linear_207_2562" x1="269.877" y1="148.801" x2="269.877" y2="152.069" gradientUnits="userSpaceOnUse">
<stop stop-color="#262B3F"/>
<stop offset="1" stop-color="#262B3F" stop-opacity="0.49"/>
</linearGradient>
<linearGradient id="paint40_linear_207_2562" x1="269.9" y1="114.744" x2="269.9" y2="117.974" gradientUnits="userSpaceOnUse">
<stop stop-color="#262B3F"/>
<stop offset="1" stop-color="#262B3F" stop-opacity="0.49"/>
</linearGradient>
<linearGradient id="paint41_linear_207_2562" x1="264.866" y1="148.754" x2="264.866" y2="152.038" gradientUnits="userSpaceOnUse">
<stop stop-color="#262B3F"/>
<stop offset="1" stop-color="#262B3F" stop-opacity="0.49"/>
</linearGradient>
<linearGradient id="paint42_linear_207_2562" x1="269.947" y1="129.159" x2="269.947" y2="132.489" gradientUnits="userSpaceOnUse">
<stop stop-color="#262B3F"/>
<stop offset="1" stop-color="#262B3F" stop-opacity="0.49"/>
</linearGradient>
<linearGradient id="paint43_linear_207_2562" x1="264.866" y1="163.304" x2="264.866" y2="166.619" gradientUnits="userSpaceOnUse">
<stop stop-color="#262B3F"/>
<stop offset="1" stop-color="#262B3F" stop-opacity="0.49"/>
</linearGradient>
<linearGradient id="paint44_linear_207_2562" x1="264.879" y1="139" x2="264.879" y2="142.268" gradientUnits="userSpaceOnUse">
<stop stop-color="#262B3F"/>
<stop offset="1" stop-color="#262B3F" stop-opacity="0.49"/>
</linearGradient>
<linearGradient id="paint45_linear_207_2562" x1="264.872" y1="114.753" x2="264.872" y2="118.021" gradientUnits="userSpaceOnUse">
<stop stop-color="#262B3F"/>
<stop offset="1" stop-color="#262B3F" stop-opacity="0.49"/>
</linearGradient>
<linearGradient id="paint46_linear_207_2562" x1="255.094" y1="143.917" x2="255.094" y2="147.144" gradientUnits="userSpaceOnUse">
<stop stop-color="#262B3F"/>
<stop offset="1" stop-color="#262B3F" stop-opacity="0.49"/>
</linearGradient>
<linearGradient id="paint47_linear_207_2562" x1="269.945" y1="163.182" x2="269.945" y2="166.528" gradientUnits="userSpaceOnUse">
<stop stop-color="#262B3F"/>
<stop offset="1" stop-color="#262B3F" stop-opacity="0.49"/>
</linearGradient>
<linearGradient id="paint48_linear_207_2562" x1="274.9" y1="143.802" x2="274.9" y2="147.055" gradientUnits="userSpaceOnUse">
<stop stop-color="#262B3F"/>
<stop offset="1" stop-color="#262B3F" stop-opacity="0.49"/>
</linearGradient>
<linearGradient id="paint49_linear_207_2562" x1="264.834" y1="129.297" x2="264.834" y2="132.502" gradientUnits="userSpaceOnUse">
<stop stop-color="#262B3F"/>
<stop offset="1" stop-color="#262B3F" stop-opacity="0.49"/>
</linearGradient>
<linearGradient id="paint50_linear_207_2562" x1="274.813" y1="109.96" x2="274.813" y2="113.244" gradientUnits="userSpaceOnUse">
<stop stop-color="#262B3F"/>
<stop offset="1" stop-color="#262B3F" stop-opacity="0.49"/>
</linearGradient>
<linearGradient id="paint51_linear_207_2562" x1="255.054" y1="109.746" x2="255.054" y2="113.262" gradientUnits="userSpaceOnUse">
<stop stop-color="#262B3F"/>
<stop offset="1" stop-color="#262B3F" stop-opacity="0.49"/>
</linearGradient>
<linearGradient id="paint52_linear_207_2562" x1="269.886" y1="119.635" x2="269.886" y2="122.77" gradientUnits="userSpaceOnUse">
<stop stop-color="#262B3F"/>
<stop offset="1" stop-color="#262B3F" stop-opacity="0.49"/>
</linearGradient>
<linearGradient id="paint53_linear_207_2562" x1="259.856" y1="114.706" x2="259.856" y2="118.021" gradientUnits="userSpaceOnUse">
<stop stop-color="#262B3F"/>
<stop offset="1" stop-color="#262B3F" stop-opacity="0.49"/>
</linearGradient>
<linearGradient id="paint54_linear_207_2562" x1="264.873" y1="124.526" x2="264.873" y2="127.788" gradientUnits="userSpaceOnUse">
<stop stop-color="#262B3F"/>
<stop offset="1" stop-color="#262B3F" stop-opacity="0.49"/>
</linearGradient>
<linearGradient id="paint55_linear_207_2562" x1="269.859" y1="134.223" x2="269.859" y2="137.431" gradientUnits="userSpaceOnUse">
<stop stop-color="#262B3F"/>
<stop offset="1" stop-color="#262B3F" stop-opacity="0.49"/>
</linearGradient>
<linearGradient id="paint56_linear_207_2562" x1="259.813" y1="163.275" x2="259.813" y2="166.543" gradientUnits="userSpaceOnUse">
<stop stop-color="#262B3F"/>
<stop offset="1" stop-color="#262B3F" stop-opacity="0.49"/>
</linearGradient>
<linearGradient id="paint57_linear_207_2562" x1="259.852" y1="138.981" x2="259.852" y2="142.3" gradientUnits="userSpaceOnUse">
<stop stop-color="#262B3F"/>
<stop offset="1" stop-color="#262B3F" stop-opacity="0.49"/>
</linearGradient>
<linearGradient id="paint58_linear_207_2562" x1="269.965" y1="153.425" x2="269.965" y2="156.806" gradientUnits="userSpaceOnUse">
<stop stop-color="#262B3F"/>
<stop offset="1" stop-color="#262B3F" stop-opacity="0.49"/>
</linearGradient>
<linearGradient id="paint59_linear_207_2562" x1="259.88" y1="148.814" x2="259.88" y2="152.016" gradientUnits="userSpaceOnUse">
<stop stop-color="#262B3F"/>
<stop offset="1" stop-color="#262B3F" stop-opacity="0.49"/>
</linearGradient>
<linearGradient id="paint60_linear_207_2562" x1="269.795" y1="158.482" x2="269.795" y2="161.919" gradientUnits="userSpaceOnUse">
<stop stop-color="#262B3F"/>
<stop offset="1" stop-color="#262B3F" stop-opacity="0.49"/>
</linearGradient>
<linearGradient id="paint61_linear_207_2562" x1="264.866" y1="158.53" x2="264.866" y2="161.735" gradientUnits="userSpaceOnUse">
<stop stop-color="#262B3F"/>
<stop offset="1" stop-color="#262B3F" stop-opacity="0.49"/>
</linearGradient>
<linearGradient id="paint62_linear_207_2562" x1="269.925" y1="124.491" x2="269.925" y2="127.925" gradientUnits="userSpaceOnUse">
<stop stop-color="#262B3F"/>
<stop offset="1" stop-color="#262B3F" stop-opacity="0.49"/>
</linearGradient>
<linearGradient id="paint63_linear_207_2562" x1="264.854" y1="134.251" x2="264.854" y2="137.437" gradientUnits="userSpaceOnUse">
<stop stop-color="#262B3F"/>
<stop offset="1" stop-color="#262B3F" stop-opacity="0.49"/>
</linearGradient>
<linearGradient id="paint64_linear_207_2562" x1="264.863" y1="153.553" x2="264.863" y2="156.774" gradientUnits="userSpaceOnUse">
<stop stop-color="#262B3F"/>
<stop offset="1" stop-color="#262B3F" stop-opacity="0.49"/>
</linearGradient>
<linearGradient id="paint65_linear_207_2562" x1="264.885" y1="119.61" x2="264.885" y2="122.824" gradientUnits="userSpaceOnUse">
<stop stop-color="#262B3F"/>
<stop offset="1" stop-color="#262B3F" stop-opacity="0.49"/>
</linearGradient>
<linearGradient id="paint66_linear_207_2562" x1="259.814" y1="124.529" x2="259.814" y2="127.772" gradientUnits="userSpaceOnUse">
<stop stop-color="#262B3F"/>
<stop offset="1" stop-color="#262B3F" stop-opacity="0.49"/>
</linearGradient>
<linearGradient id="paint67_linear_207_2562" x1="259.858" y1="129.288" x2="259.858" y2="132.511" gradientUnits="userSpaceOnUse">
<stop stop-color="#262B3F"/>
<stop offset="1" stop-color="#262B3F" stop-opacity="0.49"/>
</linearGradient>
<linearGradient id="paint68_linear_207_2562" x1="259.845" y1="158.507" x2="259.845" y2="161.747" gradientUnits="userSpaceOnUse">
<stop stop-color="#262B3F"/>
<stop offset="1" stop-color="#262B3F" stop-opacity="0.49"/>
</linearGradient>
<linearGradient id="paint69_linear_207_2562" x1="259.809" y1="153.604" x2="259.809" y2="156.768" gradientUnits="userSpaceOnUse">
<stop stop-color="#262B3F"/>
<stop offset="1" stop-color="#262B3F" stop-opacity="0.49"/>
</linearGradient>
<linearGradient id="paint70_linear_207_2562" x1="259.854" y1="119.619" x2="259.854" y2="122.748" gradientUnits="userSpaceOnUse">
<stop stop-color="#262B3F"/>
<stop offset="1" stop-color="#262B3F" stop-opacity="0.49"/>
</linearGradient>
<linearGradient id="paint71_linear_207_2562" x1="269.822" y1="168.182" x2="269.822" y2="171.614" gradientUnits="userSpaceOnUse">
<stop stop-color="#262B3F"/>
<stop offset="1" stop-color="#262B3F" stop-opacity="0.49"/>
</linearGradient>
<linearGradient id="paint72_linear_207_2562" x1="264.872" y1="109.979" x2="264.872" y2="113.071" gradientUnits="userSpaceOnUse">
<stop stop-color="#262B3F"/>
<stop offset="1" stop-color="#262B3F" stop-opacity="0.49"/>
</linearGradient>
<linearGradient id="paint73_linear_207_2562" x1="269.832" y1="109.966" x2="269.832" y2="113.273" gradientUnits="userSpaceOnUse">
<stop stop-color="#262B3F"/>
<stop offset="1" stop-color="#262B3F" stop-opacity="0.49"/>
</linearGradient>
<linearGradient id="paint74_linear_207_2562" x1="269.806" y1="143.942" x2="269.806" y2="147.027" gradientUnits="userSpaceOnUse">
<stop stop-color="#262B3F"/>
<stop offset="1" stop-color="#262B3F" stop-opacity="0.49"/>
</linearGradient>
<linearGradient id="paint75_linear_207_2562" x1="259.773" y1="134.21" x2="259.773" y2="137.568" gradientUnits="userSpaceOnUse">
<stop stop-color="#262B3F"/>
<stop offset="1" stop-color="#262B3F" stop-opacity="0.49"/>
</linearGradient>
<linearGradient id="paint76_linear_207_2562" x1="264.88" y1="143.942" x2="264.88" y2="147.087" gradientUnits="userSpaceOnUse">
<stop stop-color="#262B3F"/>
<stop offset="1" stop-color="#262B3F" stop-opacity="0.49"/>
</linearGradient>
<linearGradient id="paint77_linear_207_2562" x1="259.82" y1="109.938" x2="259.82" y2="113.058" gradientUnits="userSpaceOnUse">
<stop stop-color="#262B3F"/>
<stop offset="1" stop-color="#262B3F" stop-opacity="0.49"/>
</linearGradient>
<linearGradient id="paint78_linear_207_2562" x1="259.82" y1="143.926" x2="259.82" y2="147.093" gradientUnits="userSpaceOnUse">
<stop stop-color="#262B3F"/>
<stop offset="1" stop-color="#262B3F" stop-opacity="0.49"/>
</linearGradient>
<linearGradient id="paint79_linear_207_2562" x1="231.888" y1="175.188" x2="231.888" y2="183.4" gradientUnits="userSpaceOnUse">
<stop stop-color="#262B3F"/>
<stop offset="1" stop-color="#262B3F" stop-opacity="0.49"/>
</linearGradient>
<linearGradient id="paint80_linear_207_2562" x1="247.963" y1="174.844" x2="247.963" y2="183.419" gradientUnits="userSpaceOnUse">
<stop stop-color="#262B3F"/>
<stop offset="1" stop-color="#262B3F" stop-opacity="0.49"/>
</linearGradient>
<linearGradient id="paint81_linear_207_2562" x1="8.80052" y1="128.582" x2="8.80052" y2="130.791" gradientUnits="userSpaceOnUse">
<stop stop-color="#262B3F"/>
<stop offset="1" stop-color="#262B3F" stop-opacity="0.49"/>
</linearGradient>
<linearGradient id="paint82_linear_207_2562" x1="149.892" y1="128.575" x2="149.892" y2="130.904" gradientUnits="userSpaceOnUse">
<stop stop-color="#262B3F"/>
<stop offset="1" stop-color="#262B3F" stop-opacity="0.49"/>
</linearGradient>
<clipPath id="clip0_207_2562">
<rect width="315" height="220" fill="white"/>
</clipPath>
</defs>
</svg>
